<?xml version="1.0" standalone="no"?>
<!DOCTYPE svg PUBLIC "-//W3C//DTD SVG 1.1//EN" "http://www.w3.org/Graphics/SVG/1.1/DTD/svg11.dtd" >
<svg>
<metadata>
Created by FontForge 20090914 at Tue Jun  4 12:46:46 2013
 By www-data
Copyright (c) 1992 Image Club Graphics, Inc.
</metadata>
<defs>
<font id="StoneSansMedium" horiz-adv-x="420" >
  <font-face 
    font-family="Stone Sans"
    font-weight="5"
    font-stretch="normal"
    units-per-em="1611"
    panose-1="0 0 0 0 0 0 0 0 0 0"
    ascent="1288"
    descent="-323"
    x-height="841"
    cap-height="1184"
    bbox="-115 -463.999 1626 1611"
    underline-thickness="20"
    underline-position="-156"
    unicode-range="U+0020-U+25CA"
  />
<missing-glyph horiz-adv-x="1184" 
d="M74 0v1184h1036v-1184h-1036zM1036 74v1036h-888v-1036h888z" />
    <glyph glyph-name=".notdef" horiz-adv-x="1184" 
d="M74 0v1184h1036v-1184h-1036zM1036 74v1036h-888v-1036h888z" />
    <glyph glyph-name="space" unicode=" " 
 />
    <glyph glyph-name="exclam" unicode="!" horiz-adv-x="392" 
d="M281 596l-21 -313h-109l-24 313v588h154v-588zM314 64c0 -31.333 -11.668 -58.001 -35.001 -80.001s-50.666 -33 -81.999 -33c-30 0 -55.333 11.333 -76 34s-31 49.334 -31 80.001c0 30 11 55.333 33 76s48.333 31 79 31c30 0 56.167 -10.5 78.5 -31.5
s33.5 -46.5 33.5 -76.5z" />
    <glyph glyph-name="quotedbl" unicode="&#x22;" horiz-adv-x="576" 
d="M495 1025l-38 -330.001c-2.66699 -23.333 -4.66699 -36.666 -6 -39.999c-4 -11.333 -12.333 -17 -25 -17c-16 0 -25.667 12.667 -29 38l-42 366c-2 18 -3 34.333 -3 49c0 65.333 24.667 98 74 98c28 0 47.333 -7.83301 58 -23.5s16 -39.5 16 -71.5
c0 -18 -1.66699 -41 -5 -69zM236 1025l-37.002 -330c-2.66699 -22.667 -5 -36.334 -7 -41.001c-4 -11.333 -12.333 -17 -25 -17c-9.33301 0 -16.166 3.33301 -20.499 10s-7.16602 16.334 -8.49902 29.001l-43 365c-2 17.333 -3 33 -3 47c0 32.667 6 57.667 18 75
s31 26 57 26c27.333 0 47 -8.33301 59 -25c10 -14 15 -37 15 -69c0 -18 -1.66699 -41.333 -5 -70z" />
    <glyph glyph-name="numbersign" unicode="#" horiz-adv-x="1048" 
d="M968 824l-13 -97h-177l-43 -249h174l-18 -94h-173l-67 -384h-106l67 384h-225l-67 -384h-105l68 384h-194l18 94h194l42 250h-193l16 96h195l62 360h105l-62 -360h225l62 360h107l-65 -360h173zM673 728h-225l-44 -250h227z" />
    <glyph glyph-name="dollar" unicode="$" horiz-adv-x="874" 
d="M792 329c0 -72.667 -22.834 -135.333 -68.501 -188s-105.167 -87 -178.5 -103l-58 -13v-154h-108v147l-61 8c-19.333 2.66699 -34 5.33398 -44 8.00098s-26 8.33398 -48 17.001c-51.333 18.667 -98 46 -140 82l70 93l27 -22c20 -15.333 51.333 -31.666 94 -48.999
c16.667 -6.66699 33 -11.834 49 -15.501s33.667 -6.5 53 -8.5v439l-21 15c-50 34.667 -87 62 -111 82c-40 34 -70.333 67 -91 99c-25.333 40 -38 81.667 -38 125v15c1.33301 8 2 13.667 2 17c7.33301 61.333 37.333 114.333 90 159c48.667 41.333 104 66.666 166 75.999
l35 5v119h109v-121c24.667 -2 44.834 -5 60.501 -9s35.167 -11.333 58.5 -22c40.667 -18.667 77 -43 109 -73l-71 -77c-15.333 11.333 -28.333 20.166 -39 26.499s-25 13.5 -43 21.5c-24.667 10.667 -49.667 18.667 -75 24v-381l64 -46c46 -32 81 -59 105 -81
c34 -30.667 59 -61.667 75 -93c18.667 -36 28 -76.667 28 -122zM408.999 715.001v342l-20 -6c-38.667 -11.333 -69.5 -29.5 -92.5 -54.5s-34.5 -55.5 -34.5 -91.5c0 -42.667 19 -82 57 -118c8 -8 31.333 -27 70 -57zM638.999 315.001c-4 40 -17.668 75.6689 -41.001 107.002
c-20.667 28 -49 54.333 -85 79l-26 17v-386c42.667 9.33301 78.834 30.166 108.501 62.499s44.5 68.166 44.5 107.499c-0.666992 6 -1 10.333 -1 13z" />
    <glyph glyph-name="percent" unicode="%" horiz-adv-x="1515" 
d="M673 859c0 -104 -23 -193.666 -69 -268.999c-52 -85.333 -122.333 -128 -211 -128c-90 0 -163.5 33.667 -220.5 101s-85.5 148.666 -85.5 243.999c0 102.667 23.333 190.667 70 264c52 81.333 121.667 122 209 122c91.333 0 166 -33.333 224 -100
c55.333 -63.333 83 -141.333 83 -234zM1213 1185l-768 -1185h-130l770 1185h128zM1441 386.001c0 -104 -23 -193.667 -69 -269c-52 -85.333 -122.333 -128 -211 -128c-89.333 0 -163.333 34.667 -222 104c-56 66 -84 146.333 -84 241c0 103.333 23.333 191.666 70 264.999
c52 81.333 121.667 122 209 122c91.333 0 166 -33.333 224 -100c55.333 -63.333 83 -141.666 83 -234.999zM522 875.001c-10.667 89.333 -29.334 151.001 -56.001 185.001c-23.333 30 -54.333 45 -93 45c-46 0 -80.667 -35.333 -104 -106c-18.667 -56 -28 -124 -28 -204
c0 -64.667 11 -119.334 33 -164.001c26.667 -54 64.334 -81 113.001 -81c43.333 0 78 29.667 104 89c22.667 52 34 112 34 180c0 20 -1 38.667 -3 56zM1290 403.002c-10.667 88.667 -29.334 150 -56.001 184c-23.333 30 -54.333 45 -93 45c-46 0 -80.667 -35 -104 -105
c-18.667 -56 -28 -124 -28 -204c0 -64.667 11 -119.667 33 -165c26.667 -54 64.334 -81 113.001 -81c43.333 0 78 29.667 104 89c22.667 52.667 34 113 34 181c0 20 -1 38.667 -3 56z" />
    <glyph glyph-name="ampersand" unicode="&#x26;" horiz-adv-x="1325" 
d="M1238 57l-152.006 -75.002l-194 176l-53 -54c-37.333 -38.667 -87.666 -68.834 -150.999 -90.501s-131.333 -32.5 -204 -32.5c-110 0 -202.667 33.667 -278 101c-78.667 70.667 -118 161.667 -118 273c0 64.667 23.333 124.667 70 180
c34.667 40.667 84.334 80.667 149.001 120l31 19l-36 33c-37.333 34.667 -64.666 68.334 -81.999 101.001c-22 40.667 -33 85.334 -33 134.001c0 74.667 30.333 135.834 91 183.501s131.334 71.5 212.001 71.5c48.667 0 95.834 -7.66699 141.501 -23
s81.834 -34.333 108.501 -57l-57 -93l-35 22c-16.667 10 -37.667 18.333 -63 25s-50 10 -74 10c-8 0 -14 -0.333008 -18 -1c-38.667 -3.33301 -71 -14.666 -97 -33.999c-29.333 -22 -44 -49.667 -44 -83c0 -40.667 8 -76.667 24 -108c14 -28 37.667 -57.333 71 -88l439 -409
l13 32c4 10 7 22 9 36s3 27.333 3 40c0 24 -2.16699 52.167 -6.5 84.5s-11.333 61.166 -21 86.499s-25.167 54.333 -46.5 87h-164l50 104h506l-54 -104h-199l15 -31c13.333 -28 23.333 -56 30 -84s10 -58.667 10 -92c0 -42 -3.66699 -81.667 -11 -119s-17.333 -68 -30 -92
l-15 -28zM811.994 227.998l-398.001 370.002l-30 -22c-42 -30 -73.167 -64.333 -93.5 -103s-30.5 -79.334 -30.5 -122.001c0 -76.667 29.333 -143.334 88 -200.001c20.667 -20 46.834 -35 78.501 -45s65.167 -15 100.5 -15c44 0 87 7.33301 129 22s76 35 102 61z" />
    <glyph glyph-name="quotesingle" unicode="'" horiz-adv-x="336" 
d="M233 1029l-35.999 -329.998c-3.33301 -24.667 -5.33301 -38.334 -6 -41.001c-4 -12 -12.333 -18 -25 -18c-8.66699 0 -15.334 3.5 -20.001 10.5s-7.66699 16.5 -9 28.5l-43 365c-2 17.333 -3 33 -3 47c0 32.667 5.83301 57.667 17.5 75s30.5 26 56.5 26
c27.333 0 46.333 -7.83301 57 -23.5s16 -38.834 16 -69.501c0 -18 -1.66699 -41.333 -5 -70z" />
    <glyph glyph-name="parenleft" unicode="(" horiz-adv-x="662" 
d="M575 1300l-58.9971 -57.998c-74.667 -72.667 -137.334 -162.334 -188.001 -269.001c-60 -126 -90 -250.667 -90 -374c0 -69.333 8.33301 -142.333 25 -219c20 -92.667 49.667 -177.667 89 -255c47.333 -93.333 105.333 -170.333 174 -231l45 -40l-63 -63l-58 42
c-112.667 81.333 -201.334 188.666 -266.001 321.999c-66.667 138 -100 289.333 -100 454c0 148 40 292 120 432c67.333 118 152.666 217.667 255.999 299l42 34z" />
    <glyph glyph-name="parenright" unicode=")" horiz-adv-x="651" 
d="M572 532c0 -147.333 -40.001 -291.334 -120.001 -432.001c-67.333 -118 -152.333 -218 -255 -300l-42 -33l-74 73l60 59c74.667 73.333 137.334 163 188.001 269c60 125.333 90 250 90 374c0 69.333 -8.33301 142.333 -25 219c-20 92.667 -49.667 177.667 -89 255
c-47.333 92.667 -105.333 169.334 -174 230.001l-45 40l62 64l59 -43c112.667 -80.667 201 -187.667 265 -321c66.667 -138 100 -289.333 100 -454z" />
    <glyph glyph-name="asterisk" unicode="*" horiz-adv-x="793" 
d="M716 903l-246 -50l170 -186l-115 -84l-124 219l-123 -220l-116 84l172 188l-250 48l47 135l228 -104l-28 250h142l-31 -250l232 105z" />
    <glyph glyph-name="plus" unicode="+" horiz-adv-x="1031" 
d="M951 371h-374v-371h-113v371h-374v117h374v367h113v-367h374v-117z" />
    <glyph glyph-name="comma" unicode="," horiz-adv-x="461" 
d="M339 37l-177 -273l-84 32l106 302c12.667 36 27.167 63.5 43.5 82.5s36.5 28.5 60.5 28.5c8.66699 0 20 -2 34 -6s25 -12.833 33 -26.5s12 -30.167 12 -49.5c0 -30.667 -9.33301 -60.667 -28 -90z" />
    <glyph glyph-name="hyphen" unicode="-" horiz-adv-x="598" 
d="M513 484h-425v125h425v-125z" />
    <glyph glyph-name="period" unicode="." horiz-adv-x="390" 
d="M301 94c0 -30.667 -10.6689 -57 -32.002 -79s-47.666 -33 -78.999 -33c-29.333 0 -54.833 11.167 -76.5 33.5s-32.5 48.833 -32.5 79.5c0 30 10.667 55.667 32 77s47 32 77 32c30.667 0 56.834 -10.833 78.501 -32.5s32.5 -47.5 32.5 -77.5z" />
    <glyph glyph-name="slash" unicode="/" horiz-adv-x="738" 
d="M643 1321l-459 -1441h-113l457 1441h115z" />
    <glyph glyph-name="zero" unicode="0" horiz-adv-x="1032" 
d="M947 651c0 -176 -32.667 -325 -98 -447c-78 -145.333 -187.667 -218 -329 -218c-136 0 -244.667 62 -326 186c-73.333 112 -110 249 -110 411c0 162.667 33.333 303 100 421c76.667 135.333 180.667 203 312 203c133.333 0 243 -56.333 329 -169
c81.333 -106.667 122 -235.667 122 -387zM775 600c0 82 -6.99707 155.665 -20.9971 220.998c-17.333 82.667 -44 146 -80 190c-42.667 53.333 -98.334 80 -167.001 80c-86 0 -151 -57.667 -195 -173c-34.667 -91.333 -52 -202.666 -52 -333.999
c0 -83.333 7 -156.666 21 -219.999c17.333 -79.333 44.666 -141.333 81.999 -186c43.333 -52 98.666 -78 165.999 -78c84.667 0 149 56.333 193 169c35.333 90 53 200.333 53 331z" />
    <glyph glyph-name="one" unicode="1" horiz-adv-x="598" 
d="M511 0h-161v1051l-226 -94l-39 100l320 127h106v-1184z" />
    <glyph glyph-name="two" unicode="2" horiz-adv-x="967" 
d="M882 0l-792.999 0.00195312v68l308 316c112.667 115.333 190 205.333 232 270c46 70 69 136.667 69 200c0 55.333 -15 101.333 -45 138c-34 42 -82.333 63 -145 63c-41.333 0 -82.333 -8.33301 -123 -25c-33.333 -13.333 -64.333 -31.666 -93 -54.999l-46 -37l-79 72
l46 43c47.333 43.333 95.166 75.166 143.499 95.499s103.5 30.5 165.5 30.5c102.667 0 187.5 -28 254.5 -84s100.5 -129.333 100.5 -220c0 -52 -8.66699 -99.667 -26 -143c-14 -34.667 -35.667 -71.334 -65 -110.001s-58 -74.334 -86 -107.001l-92 -101l-108 -111l-192 -197
h574v-106z" />
    <glyph glyph-name="three" unicode="3" horiz-adv-x="879" 
d="M793 332c0 -100 -43.002 -184.666 -129.002 -253.999c-81.333 -65.333 -174 -98 -278 -98c-46.667 0 -90.834 4.16699 -132.501 12.5s-81.5 20.166 -119.5 35.499l-51 20l47 102l48 -22c21.333 -10 51.333 -18 90 -24s78.334 -9 119.001 -9c66 0 120.5 21.833 163.5 65.5
s64.5 97.5 64.5 161.5c0 84 -29.667 147.333 -89 190c-52 37.333 -120.333 56 -205 56h-85v100l49 4c80 0 144.5 24.5 193.5 73.5s73.5 110.167 73.5 183.5c-4 48 -20.333 85.667 -49 113c-30.667 29.333 -73 44 -127 44c-35.333 0 -69.833 -4.66699 -103.5 -14
s-61.167 -20.333 -82.5 -33l-47 -27l-45 96l45 24c38.667 22 77.834 38.667 117.501 50s82.834 17 129.501 17c96 0 173.333 -21 232 -63c66.667 -47.333 100 -115.333 100 -204c0 -54.667 -14.667 -104.667 -44 -150c-26 -40.667 -63 -75.334 -111 -104.001l-62 -37l66 -21
c68 -21.333 122 -57.166 162 -107.499s60 -110.5 60 -180.5z" />
    <glyph glyph-name="four" unicode="4" horiz-adv-x="983" 
d="M914 339h-152v-339h-145v339h-529v79l588 766h86v-727h152v-118zM617 457v501l-59 -96l-63 -95l-77 -108.5l-70 -95.5l-83 -106h352z" />
    <glyph glyph-name="five" unicode="5" horiz-adv-x="946" 
d="M862 389c0 -116.667 -44.5 -214.17 -133.5 -292.503s-196.167 -117.5 -321.5 -117.5c-48 0 -94.667 6.33301 -140 19s-82 27.334 -110 44.001l-73 47l58 108l37 -27c26 -19.333 56.333 -35.666 91 -48.999c42.667 -16.667 84 -25 124 -25c82 0 150.667 23.333 206 70
s83 106.334 83 179.001c0 98.667 -38.667 177.334 -116 236.001c-68.667 52.667 -161 85.667 -277 99l-86 11l153 493h461l-42 -125h-316l-79 -260l50 -9c27.333 -4.66699 48.333 -8.66699 63 -12c24.667 -6 49 -13.333 73 -22c86.667 -32.667 155.667 -78.334 207 -137.001
c58.667 -67.333 88 -144 88 -230z" />
    <glyph glyph-name="six" unicode="6" horiz-adv-x="966" 
d="M887 363c0 -109.333 -43.334 -201.666 -130.001 -276.999c-80.667 -70.667 -172 -106 -274 -106c-119.333 0 -215.333 39.667 -288 119s-109 184 -109 314c0 185.333 65.667 354 197 506c127.333 147.333 278 237.333 452 270l75 14v-111
c-48 -8.66699 -91.167 -20.5 -129.5 -35.5s-79.5 -36.833 -123.5 -65.5c-60 -38.667 -110.167 -80.834 -150.5 -126.501s-70.166 -93.5 -89.499 -143.5l-28 -71l60 35c28.667 16.667 59.667 29.167 93 37.5s66.666 12.5 99.999 12.5c100.667 0 182.334 -31.333 245.001 -94
c66.667 -67.333 100 -160 100 -278zM710.999 363c0 72.667 -19.333 132.667 -58 180c-42 51.333 -99.333 77 -172 77c-68.667 0 -123.334 -28 -164.001 -84c-35.333 -49.333 -53 -107 -53 -173c0 -75.333 20.833 -139 62.5 -191s93.167 -78 154.5 -78
c70.667 0 127.334 27.333 170.001 82c40 50.667 60 113 60 187z" />
    <glyph glyph-name="seven" unicode="7" horiz-adv-x="916" 
d="M843 1053l-602 -1067l-152 36l596 1036h-560v126h718v-131z" />
    <glyph glyph-name="eight" unicode="8" horiz-adv-x="956" 
d="M874 309c0 -102 -41.666 -183.999 -124.999 -245.999c-76 -56.667 -168.333 -85 -277 -85c-105.333 0 -195 28.333 -269 85c-81.333 62 -122 144 -122 246c0 63.333 18 122 54 176c32 48 75 88 129 120l55 33l-80 52c-38.667 25.333 -67 58.833 -85 100.5
s-27 88.5 -27 140.5c0 75.333 35.333 139.5 106 192.5s153.667 79.5 249 79.5c101.333 0 184.166 -24.333 248.499 -73s96.5 -115 96.5 -199c0 -54 -18 -104 -54 -150c-26 -34 -64.667 -68.667 -116 -104l-49 -34l58 -29c68.667 -34.667 119.667 -75.334 153 -122.001
c36.667 -51.333 55 -112.333 55 -183zM661.001 931.001c0 54 -16 95.998 -48 125.998s-74.667 45 -128 45c-57.333 0 -103.333 -15.667 -138 -47s-52 -72.666 -52 -123.999c0 -38.667 10.333 -73.167 31 -103.5s50 -57.166 88 -80.499l75 -46l64 44c32 22.667 58 50 78 82
s30 66.667 30 104zM707.001 308.999c0 50.667 -17.998 97.667 -53.998 141c-26.667 32 -56.667 56 -90 72l-112 54l-59 -33c-42.667 -24 -76.334 -54 -101.001 -90c-29.333 -42 -44 -90 -44 -144c0 -60 21.667 -110.667 65 -152s96.666 -62 159.999 -62
c72 0 129.167 19.833 171.5 59.5s63.5 91.167 63.5 154.5z" />
    <glyph glyph-name="nine" unicode="9" horiz-adv-x="950" 
d="M879 767c0 -188 -70.6689 -360.665 -212.002 -517.998c-138.667 -154.667 -297.667 -242.334 -477 -263.001l-34 -4v112c46 7.33301 88.833 18.5 128.5 33.5s81.834 36.833 126.501 65.5c59.333 38.667 109 80.667 149 126s69.667 93.333 89 144l28 73l-62 -37
c-27.333 -16.667 -57.666 -28.834 -90.999 -36.501s-66.333 -11.5 -99 -11.5c-98.667 0 -179.667 33.333 -243 100c-66 69.333 -99 159.666 -99 270.999c0 104 38.667 193.5 116 268.5s171 112.5 281 112.5c117.333 0 211.333 -35 282 -105
c78 -77.333 117 -187.666 117 -330.999zM700.998 822.002c0 72.667 -20 134.666 -60 185.999c-42 53.333 -95.667 80 -161 80c-68.667 0 -123.667 -27 -165 -81c-38 -50 -57 -111.667 -57 -185c0 -71.333 18.667 -130.666 56 -177.999c41.333 -52.667 98 -79 170 -79
c64.667 0 117 24.5 157 73.5s60 110.167 60 183.5z" />
    <glyph glyph-name="colon" unicode=":" horiz-adv-x="402" 
d="M311 633c0 -30.667 -10.6689 -57 -32.002 -79s-47.666 -33 -78.999 -33c-30.667 0 -56.5 11.167 -77.5 33.5s-31.5 48.833 -31.5 79.5c0 30 10.667 55.667 32 77s47 32 77 32c30.667 0 56.834 -10.833 78.501 -32.5s32.5 -47.5 32.5 -77.5zM310.998 94
c0 -30.667 -10.6689 -57 -32.002 -79s-47.666 -33 -78.999 -33c-30 0 -55.667 11.333 -77 34s-32 49 -32 79s10.667 55.667 32 77s47 32 77 32c30.667 0 56.834 -10.833 78.501 -32.5s32.5 -47.5 32.5 -77.5z" />
    <glyph glyph-name="semicolon" unicode=";" horiz-adv-x="506" 
d="M418 633c0 -30.667 -10.6689 -57 -32.002 -79s-47.666 -33 -78.999 -33c-30.667 0 -56.5 11.167 -77.5 33.5s-31.5 48.833 -31.5 79.5c0 30 10.667 55.667 32 77s47 32 77 32c30.667 0 56.834 -10.833 78.501 -32.5s32.5 -47.5 32.5 -77.5zM332.998 49l-169 -285l-84 32
l114 302c14 38.667 27 65.667 39 81c16 20 35.333 30 58 30c8 0 17.667 -1.66699 29 -5c29.333 -8.66699 44 -29 44 -61c0 -15.333 -2.5 -30.333 -7.5 -45s-12.833 -31 -23.5 -49z" />
    <glyph glyph-name="less" unicode="&#x3c;" horiz-adv-x="925" 
d="M844 -23l-758 436v86l758 342v-106l-630 -288l630 -360v-110z" />
    <glyph glyph-name="equal" unicode="=" horiz-adv-x="1021" 
d="M942 578h-861v115h861v-115zM942 248h-861v115h861v-115z" />
    <glyph glyph-name="greater" unicode="&#x3e;" horiz-adv-x="923" 
d="M844 413l-758 -436v110l630 360l-630 288v106l758 -342v-86z" />
    <glyph glyph-name="question" unicode="?" horiz-adv-x="814" 
d="M735 973c0 -78.667 -32.333 -163.336 -97 -254.003l-178 -234c-19.333 -30 -33.666 -58 -42.999 -84c-5.33301 -23.333 -10.333 -46.666 -15 -69.999h-124c0 36.667 1.16699 64.834 3.5 84.501s8.5 40.5 18.5 62.5c19.333 44 52.666 98 99.999 162
c54.667 74.667 89.334 124.334 104.001 149.001c32.667 56.667 49 109.667 49 159c0 47.333 -14 86.5 -42 117.5s-66.667 46.5 -116 46.5c-78.667 0 -141.334 -24.333 -188.001 -73l-32 -34l-73 77l39 40c34.667 36.667 74.5 63.5 119.5 80.5s95.833 25.5 152.5 25.5
c93.333 0 169.333 -21.333 228 -64c62.667 -46 94 -109.667 94 -191zM454 88.998c0 -31.333 -11.167 -57.834 -33.5 -79.501s-48.833 -32.5 -79.5 -32.5c-30 0 -55.667 10.667 -77 32s-32 47 -32 77s10.333 56 31 78s45.667 33 75 33c32.667 0 60.167 -10.167 82.5 -30.5
s33.5 -46.166 33.5 -77.499z" />
    <glyph glyph-name="at" unicode="@" horiz-adv-x="1257" 
d="M1182 702c0 -120 -37.999 -226.669 -113.999 -320.002c-78 -96 -169 -144 -273 -144c-44.667 0 -78 22 -100 66c-6.66699 14.667 -13 37 -19 67l-48 -55c-40.667 -47.333 -92.334 -71 -155.001 -71s-114.5 25.333 -155.5 76s-61.5 109.667 -61.5 177
c0 99.333 42 186.333 126 261c76 67.333 153.667 101 233 101c30.667 0 57.167 -6 79.5 -18s37.833 -30.667 46.5 -56l16 -45l32 100l138 3l-125 -464c-2 -7.33301 -3.5 -14.5 -4.5 -21.5s-1.5 -14.167 -1.5 -21.5c0 -16.667 2.33301 -29.667 7 -39s12.667 -14 24 -14
c66 0 127.167 43.667 183.5 131s84.5 179 84.5 275c0 124.667 -48.667 224 -146 298c-88.667 67.333 -196.667 101 -324 101c-138 0 -255.833 -48.833 -353.5 -146.5s-146.5 -215.167 -146.5 -352.5c0 -143.333 49.833 -266.166 149.5 -368.499s220.5 -153.5 362.5 -153.5
c103.333 0 192.333 20 267 60c54 28.667 97.667 66 131 112l34 60h106l-47 -81c-45.333 -62.667 -101 -113 -167 -151c-94 -54.667 -203 -82 -327 -82c-164 0 -304.333 58.333 -421 175s-175 257.334 -175 422.001c0 162 57.5 300.833 172.5 416.5
s253.167 173.5 414.5 173.5c148 0 276.333 -43 385 -129c114.667 -90.667 172 -204.667 172 -342zM726.001 676.998c0 41.333 -8.33105 75.167 -24.998 101.5s-40 39.5 -70 39.5c-52.667 0 -104.167 -44.333 -154.5 -133s-75.5 -175.334 -75.5 -260.001
c0 -36.667 8 -66.667 24 -90c19.333 -28.667 47.666 -43 84.999 -43c53.333 0 103.666 48.667 150.999 146c43.333 88.667 65 168.334 65 239.001z" />
    <glyph glyph-name="A" unicode="A" horiz-adv-x="1129" 
d="M1083 0h-178l-125 351h-460l-128 -351h-146l476 1184h109zM739 469l-182 508l-194 -508h376z" />
    <glyph glyph-name="B" unicode="B" horiz-adv-x="918" 
d="M856 342c0 -98.667 -37.667 -180.335 -113 -245.002s-172 -97 -290 -97h-350v1184h400c76 0 140 -20.667 192 -62c56.667 -44.667 85 -105 85 -181c0 -66.667 -16.833 -124.5 -50.5 -173.5s-82.167 -86.833 -145.5 -113.5l-40 -17l59 -8
c75.333 -9.33301 136.333 -40.666 183 -93.999s70 -117.666 70 -192.999zM622 898.999c0 60.667 -21 104.667 -63 132c-34.667 22.667 -81.667 34 -141 34h-153v-396h103c70 0 129.833 21.5 179.5 64.5s74.5 98.167 74.5 165.5zM684 339.999
c0 72.667 -26.666 128 -79.999 166c-47.333 34 -109 51 -185 51h-154v-445h167c71.333 0 129.666 18 174.999 54c51.333 40.667 77 98.667 77 174z" />
    <glyph glyph-name="C" unicode="C" horiz-adv-x="1179" 
d="M1098 1082l-69.998 -98.999l-75 42c-31.333 18 -69.333 31.333 -114 40s-96.334 13 -155.001 13c-124.667 0 -227 -50.333 -307 -151c-76.667 -96.667 -115 -215.667 -115 -357c0 -126.667 40.667 -236.334 122 -329.001c84 -96 186.667 -144 308 -144
c58 0 110.333 4.5 157 13.5s85.667 22.5 117 40.5l57 32l63 -98l-53 -26c-63.333 -32 -121.833 -53.5 -175.5 -64.5s-118.834 -16.5 -195.501 -16.5c-165.333 0 -303 57.333 -413 172s-165 256.334 -165 425.001c0 172 59.667 318.333 179 439s263.333 181 432 181
c72 0 133.667 -5.83301 185 -17.5s103 -31.834 155 -60.501z" />
    <glyph glyph-name="D" unicode="D" horiz-adv-x="1194" 
d="M1129 667c0 -163.333 -35.667 -298.333 -107 -405c-60.667 -91.333 -145.667 -159.666 -255 -204.999c-90.667 -38 -190 -57 -298 -57h-366v1184h448c156 0 287.667 -41.667 395 -125c122 -94.667 183 -225.334 183 -392.001zM947 594c0 160 -39 279.667 -117 359
c-74.667 76 -182.667 114 -324 114h-238v-947h196c144.667 0 258 34.667 340 104c95.333 80.667 143 204 143 370z" />
    <glyph glyph-name="E" unicode="E" horiz-adv-x="825" 
d="M758 0h-661v1184h586v-117h-422v-386h414v-118h-414v-444h497v-119z" />
    <glyph glyph-name="F" unicode="F" horiz-adv-x="749" 
d="M689 1067h-417v-408h410v-118h-410v-541h-164v1184h581v-117z" />
    <glyph glyph-name="G" unicode="G" horiz-adv-x="1216" 
d="M1137 65l-83.001 -28.001c-55.333 -19.333 -123 -33.666 -203 -42.999c-62 -7.33301 -123.333 -11 -184 -11c-162.667 0 -299.667 56.333 -411 169s-167 254 -167 424c0 174 57.833 321.167 173.5 441.5s261.167 180.5 436.5 180.5c77.333 0 144.5 -5 201.5 -15
s110.5 -28.667 160.5 -56l65 -35l-69 -98l-72 41c-22.667 12.667 -56.5 24 -101.5 34s-90.833 15 -137.5 15c-19.333 0 -38.666 -1 -57.999 -3c-132 -16 -234.833 -70 -308.5 -162s-110.5 -208 -110.5 -348c0 -129.333 40.5 -239.833 121.5 -331.5
s182.833 -137.5 305.5 -137.5c106 0 185.333 8.66699 238 26l37 13v402h166v-478z" />
    <glyph glyph-name="H" unicode="H" horiz-adv-x="1076" 
d="M995 0h-170v593h-565v-593h-173v1184h173v-473h565v473h170v-1184z" />
    <glyph glyph-name="I" unicode="I" horiz-adv-x="417" 
d="M300 0h-170v1184h170v-1184z" />
    <glyph glyph-name="J" unicode="J" horiz-adv-x="411" 
d="M294 -44c0 -47.333 -8.16699 -89 -24.5 -125s-39.5 -66 -69.5 -90c-27.333 -22 -55 -37.833 -83 -47.5s-58.667 -14.5 -92 -14.5l-20 -1v96l16 3c13.333 2.66699 28 9 44 19s28.333 22 37 36c13.333 22 21 58 23 108v82v1162h169v-1228z" />
    <glyph glyph-name="K" unicode="K" horiz-adv-x="1021" 
d="M974 51l-163 -66l-528 631l1 -616h-170v1184h169v-529l511 552l112 -74l-458 -485z" />
    <glyph glyph-name="L" unicode="L" horiz-adv-x="830" 
d="M767 0h-664v1184h170v-1064h494v-120z" />
    <glyph glyph-name="M" unicode="M" horiz-adv-x="1428" 
d="M1347 0h-159v948l-454 -950h-81l-428 931v-929h-138v1184h175l448 -964l467 964h170v-1184z" />
    <glyph glyph-name="N" unicode="N" horiz-adv-x="1113" 
d="M1034 -4h-110l-699 920v-916h-138v1184h106l708 -932v932h133v-1188z" />
    <glyph glyph-name="O" unicode="O" horiz-adv-x="1362" 
d="M1272 597c0 -173.333 -53.667 -317.999 -161 -433.999c-111.333 -120.667 -256 -181 -434 -181c-168.667 0 -309.5 59.5 -422.5 178.5s-169.5 264.5 -169.5 436.5c0 163.333 56.167 305.166 168.5 425.499s247.5 180.5 405.5 180.5c186 0 335.667 -58.333 449 -175
c109.333 -112 164 -255.667 164 -431zM1086 597.001c0 137.333 -32 249.332 -96 335.999c-74 100.667 -183 151 -327 151c-122.667 0 -221 -50 -295 -150c-67.333 -91.333 -101 -203.666 -101 -336.999c0 -142.667 37.833 -261 113.5 -355s174.5 -141 296.5 -141
c123.333 0 222.333 45.167 297 135.5s112 210.5 112 360.5z" />
    <glyph glyph-name="P" unicode="P" horiz-adv-x="863" 
d="M805 901c2.66699 -16.667 3.99902 -35.001 3.99902 -55.001c0 -104.667 -41.333 -194.667 -124 -270s-182.334 -113 -299.001 -113l-29 -1v108l26 1c72.667 0 131.667 22 177 66c50 48.667 75 116.334 75 203.001c0 79.333 -23 138.333 -69 177
c-39.333 32.667 -93.666 49 -162.999 49h-125v-1066h-170v1184h338c95.333 0 173.333 -21.333 234 -64c68.667 -48 110.334 -121 125.001 -219z" />
    <glyph glyph-name="Q" unicode="Q" horiz-adv-x="1363" 
d="M1353 -165l-73 -108.999l-532 258c-23.333 -3.33301 -36 -5.33301 -38 -6c-3.33301 -0.666992 -6.33301 -1.33398 -9 -2.00098h-16c-185.333 0 -333.333 64 -444 192c-98.667 114 -148 250 -148 408c0 169.333 52 314 156 434c110 126.667 250 190 420 190
c182 0 330 -58.667 444 -176c110 -113.333 165 -256 165 -428c0 -126 -31.667 -239.667 -95 -341c-60 -96 -135.667 -162.667 -227 -200l-44 -18zM1095 596.001c0 141.333 -32.666 255 -97.999 341c-74.667 98 -183.334 147 -326.001 147c-130 0 -230.333 -51 -301 -153
c-64 -92 -96 -210.333 -96 -355c0 -132 36 -243.667 108 -335c77.333 -98 178.333 -147 303 -147c124 0 223.333 46 298 138s112 213.333 112 364z" />
    <glyph glyph-name="R" unicode="R" horiz-adv-x="939" 
d="M892 33l-165 -52.0029l-276 510h-175v-491h-162v1184h358c87.333 0 160 -23.333 218 -70c54 -43.333 86.667 -99.666 98 -168.999c4 -24 6 -48 6 -72c0 -61.333 -13 -118.166 -39 -170.499s-65 -98.166 -117 -137.499l-42 -31zM620 874.997
c0 63.333 -18.667 111.333 -56 144s-90 49 -158 49h-130v-460h112c66.667 0 122 24 166 72s66 113 66 195z" />
    <glyph glyph-name="S" unicode="S" horiz-adv-x="901" 
d="M814 260c-8.66699 -81.333 -47.167 -148.667 -115.5 -202s-148.5 -80 -240.5 -80c-132.667 0 -242 29.333 -328 88l-35 23l77 106l64 -39c28 -16.667 60.833 -30.667 98.5 -42s74.5 -17 110.5 -17c48 0 90.333 12.667 127 38s58.334 60.333 65.001 105
c0.666992 7.33301 1.5 14.333 2.5 21s1.5 14 1.5 22c0 42 -11.667 80.667 -35 116c-19.333 28.667 -47.833 57.667 -85.5 87l-110.5 85l-119 91c-45.333 37.333 -79 73 -101 107c-28 44 -42 92.667 -42 146c0 83.333 34.667 152.333 104 207c66 52 145 78 237 78
c58.667 0 107.667 -4.83301 147 -14.5s79.333 -29.167 120 -58.5l42 -30l-87 -95l-41 28c-27.333 18.667 -55 32 -83 40s-61.667 12 -101 12c-44.667 0 -83.334 -14.333 -116.001 -43s-49 -64.334 -49 -107.001c0 -60 37 -118.667 111 -176l113 -84
c82.667 -66 126.667 -101.333 132 -106c46 -40 79.333 -78 100 -114c26 -44.667 39 -95 39 -151v-25c-1.33301 -7.33301 -2 -12.666 -2 -15.999z" />
    <glyph glyph-name="T" unicode="T" horiz-adv-x="1053" 
d="M989 1064h-377v-1064h-165v1064h-383v120h925v-120z" />
    <glyph glyph-name="U" unicode="U" horiz-adv-x="1086" 
d="M1006 422c0 -73.333 -11.499 -137.003 -34.499 -191.003s-61.167 -105.333 -114.5 -154c-33.333 -30 -78.5 -54.167 -135.5 -72.5s-116.5 -27.5 -178.5 -27.5c-46.667 0 -91.834 5.16699 -135.501 15.5s-84.834 26.833 -123.501 49.5
c-70.667 40.667 -121.667 95.667 -153 165c-28 62 -42 138.667 -42 230v747h167v-733c0 -65.333 8.33301 -122.666 25 -171.999c22 -65.333 58 -112.166 108 -140.499s105.333 -42.5 166 -42.5c38.667 0 76.667 6.5 114 19.5s70 32.167 98 57.5
c32.667 30 55.334 70.667 68.001 122c10 40.667 15 94.334 15 161.001v728h156v-762z" />
    <glyph glyph-name="V" unicode="V" horiz-adv-x="1108" 
d="M1066 1184l-469 -1184h-109l-439 1168l165 34l344 -970l362 971z" />
    <glyph glyph-name="W" unicode="W" horiz-adv-x="1678" 
d="M1624 1184l-368 -1184h-139l-287 941l-282 -941h-148l-353 1165l157 36l282 -986l291 969h129l294 -965l291 988z" />
    <glyph glyph-name="X" unicode="X" horiz-adv-x="1075" 
d="M1037 23l-174 -37l-351 553l-318 -556l-149 34l384 628l-354 517l175 41l279 -430l248 433l151 -21l-321 -519z" />
    <glyph glyph-name="Y" unicode="Y" horiz-adv-x="1009" 
d="M971 1179l-400 -667v-512h-166v512l-359 647l169 38l290 -588l322 590z" />
    <glyph glyph-name="Z" unicode="Z" horiz-adv-x="1086" 
d="M1004 0h-917v55l685 1010h-577v119h800v-45l-680 -1017h689v-122z" />
    <glyph glyph-name="bracketleft" unicode="[" horiz-adv-x="549" 
d="M472 -258h-385v1515h378v-75h-225v-1360h232v-80z" />
    <glyph glyph-name="backslash" unicode="\" horiz-adv-x="753" 
d="M682 -22l-93 1l-503 1218h93z" />
    <glyph glyph-name="bracketright" unicode="]" horiz-adv-x="565" 
d="M481 -266h-378v75h225v1372h-232v68h385v-1515z" />
    <glyph glyph-name="asciicircum" unicode="^" horiz-adv-x="743" 
d="M663 944h-98l-190 186l-191 -183h-99l234 296h113z" />
    <glyph glyph-name="underscore" unicode="_" horiz-adv-x="1116" 
d="M1124 -208h-1124v107h1124v-107z" />
    <glyph glyph-name="grave" unicode="`" horiz-adv-x="576" 
d="M496 952h-103l-318 234l110 85z" />
    <glyph glyph-name="a" unicode="a" horiz-adv-x="841" 
d="M792 0l-160.998 -0.00488281c-5.33301 12 -9.83301 22.5 -13.5 31.5s-6.5 19.167 -8.5 30.5c-4 23.333 -6 44 -6 62c0 10.667 0.333008 19.334 1 26.001l-61 -58c-53.333 -50 -93.666 -81.667 -120.999 -95s-57.333 -20 -90 -20c-82 0 -144 26 -186 78
c-38 46.667 -57 109.667 -57 189c0 70 28.667 130 86 180c44 38.667 103.333 69.667 178 93l244 79c0 35.333 -10 67 -30 95c-34 49.333 -81.333 74 -142 74c-30.667 0 -60.667 -4.16699 -90 -12.5s-55.333 -20.166 -78 -35.499l-61 -41l-57 74l67 47
c23.333 16.667 56.5 31.667 99.5 45s86.167 20 129.5 20c105.333 0 186.666 -28 243.999 -84c47.333 -46 71 -100.667 71 -164l-1 -360c0 -23.333 1.16699 -48.666 3.5 -75.999s4.16602 -50.166 5.49902 -68.499s5.66602 -37.166 12.999 -56.499zM604.002 497.995
l-82.9971 -24c-25.333 -7.33301 -48 -14.5 -68 -21.5s-43 -16.167 -69 -27.5c-43.333 -18.667 -77.333 -44.5 -102 -77.5s-37 -71.833 -37 -116.5c0 -42 12.667 -75.333 38 -100c23.333 -22.667 52.666 -34 87.999 -34c23.333 0 45.666 5.33301 66.999 16
c51.333 24.667 91.166 63 119.499 115s42.5 111.333 42.5 178z" />
    <glyph glyph-name="b" unicode="b" horiz-adv-x="998" 
d="M934 500c2 -21.333 3.00195 -42.001 3.00195 -62.001c0 -123.333 -36 -228.666 -108 -315.999c-75.333 -90.667 -169 -136 -281 -136c-50 0 -91 4.66699 -123 14c-38.667 11.333 -74.334 32 -107.001 62l-58 53v-115h-157v1242h146v-526l44 48
c32 36 70.833 62.667 116.5 80s97.167 26 154.5 26c103.333 0 188.333 -34.667 255 -104c63.333 -66 101.666 -154.667 114.999 -266zM773.002 436.999c0 102 -23.333 182 -70 240s-110.334 87 -191.001 87c-79.333 0 -142.666 -34 -189.999 -102
c-44 -63.333 -66 -143.333 -66 -240c0 -92 20 -167.667 60 -227c46.667 -69.333 114.667 -104 204 -104c88 0 154 36.667 198 110c36.667 61.333 55 140 55 236z" />
    <glyph glyph-name="c" unicode="c" horiz-adv-x="868" 
d="M793 71l-52.999 -33.998c-23.333 -14.667 -58 -28 -104 -40s-92.333 -18 -139 -18c-114 0 -210 40.333 -288 121c-80 82.667 -120 188 -120 316c0 126 39.333 231.333 118 316c81.333 87.333 184.666 131 309.999 131c46 0 83.667 -2.5 113 -7.5s59.333 -15.5 90 -31.5
l49 -24l-54 -85l-43 20c-16.667 7.33301 -34.667 13.166 -54 17.499s-41.666 6.5 -66.999 6.5c-14.667 0 -30 -1 -46 -3c-82.667 -9.33301 -145.834 -46.833 -189.501 -112.5s-65.5 -147.834 -65.5 -246.501c0 -81.333 24.333 -152.333 73 -213c51.333 -64 115 -96 191 -96
c46 0 82.333 2.66699 109 8c35.333 7.33301 67.333 20.333 96 39l32 22z" />
    <glyph glyph-name="d" unicode="d" horiz-adv-x="999" 
d="M903 0l-142.999 -0.00195312v129l-67 -67c-28 -28 -63.5 -49.333 -106.5 -64s-88.5 -22 -136.5 -22c-109.333 0 -199.5 42.5 -270.5 127.5s-106.5 188.5 -106.5 310.5c0 11.333 0.666992 24.333 2 39s3 30.334 5 47.001c16 105.333 60.167 191.833 132.5 259.5
s154.166 101.5 245.499 101.5c56.667 0 107.167 -6.66699 151.5 -20s79.5 -34.666 105.5 -63.999l32 -37v502h156v-1242zM757.001 421.998c0 96.667 -21.332 175.333 -63.999 236c-46 65.333 -110.333 98 -193 98c-80.667 0 -144.5 -28 -191.5 -84
s-70.5 -134.333 -70.5 -235c0 -99.333 18.667 -180.333 56 -243c45.333 -76 112.666 -114 201.999 -114c88 0 155.333 37 202 111c39.333 62.667 59 139.667 59 231z" />
    <glyph glyph-name="e" unicode="e" horiz-adv-x="901" 
d="M818 413l-565 0.000976562c0 -4.66699 -0.166992 -9.83398 -0.5 -15.501s-0.5 -9.5 -0.5 -11.5c0 -80 27.667 -150 83 -210s120.333 -90 195 -90c38 0 71 3.5 99 10.5s58.333 20.167 91 39.5l43 26l48 -78l-72 -43c-66.667 -40.667 -147.334 -61 -242.001 -61
c-117.333 0 -213.666 38.667 -288.999 116c-79.333 82 -119 192 -119 330c0 125.333 33.333 228 100 308c70.667 85.333 165.667 128 285 128c110 0 196 -37 258 -111c53.333 -64 80 -141.667 80 -233zM675 508.001l-8 73c-5.33301 52 -25.666 94.667 -60.999 128
s-80 50 -134 50c-52 0 -97.333 -17.833 -136 -53.5s-63.334 -80.5 -74.001 -134.5l-11 -63h424z" />
    <glyph glyph-name="f" unicode="f" horiz-adv-x="662" 
d="M600 1207l-32 -76.001l-15 3l-30 4c-10 1.33301 -19.667 2 -29 2c-18 0 -33.833 -2.16699 -47.5 -6.5s-27 -13 -40 -26s-21.167 -31.5 -24.5 -55.5s-5 -56.333 -5 -97v-114h203v-89h-203v-752h-152l1 752h-140v89h138v154c0 64 20.5 118.833 61.5 164.5
s93.167 71.834 156.5 78.501c4 0 9.16699 0.333008 15.5 1s12.5 1 18.5 1c22 0 42.667 -2.5 62 -7.5s40 -13.5 62 -25.5z" />
    <glyph glyph-name="g" unicode="g" horiz-adv-x="994" 
d="M893 67c0 -83.333 -4.00098 -144 -12.001 -182c-12 -56.667 -37.667 -110.167 -77 -160.5s-91 -88.166 -155 -113.499c-58.667 -23.333 -126 -35 -202 -35c-30 0 -63.167 2.33301 -99.5 7s-67.5 10 -93.5 16s-55 16 -87 30l-55 25l42 102l65 -32
c26 -13.333 58.5 -24.166 97.5 -32.499s80.167 -12.5 123.5 -12.5c40 0 76.167 4.16699 108.5 12.5s60.833 21.5 85.5 39.5c37.333 28 65.333 66.167 84 114.5s28 100.166 28 155.499v133l-46 -50c-33.333 -36 -71.666 -62.833 -114.999 -80.5s-93.666 -26.5 -150.999 -26.5
c-98.667 0 -180.834 34.167 -246.501 102.5s-105.167 157.5 -118.5 267.5c-2.66699 19.333 -4 41.666 -4 66.999c0 122 37.5 226.5 112.5 313.5s168.167 130.5 279.5 130.5c52 0 98.5 -6.66699 139.5 -20s71.5 -31 91.5 -53l48 -53v109h157v-774zM740.999 420
c0 95.333 -18.333 171.333 -55 228c-45.333 70 -115 105 -209 105c-88 0 -153 -36.667 -195 -110c-34 -59.333 -51 -136.666 -51 -231.999c0 -100.667 22.5 -180.334 67.5 -239.001s107.5 -88 187.5 -88c78.667 0 141.667 34 189 102c44 63.333 66 141.333 66 234z" />
    <glyph glyph-name="h" unicode="h" horiz-adv-x="907" 
d="M829 0h-152.004v533c0 68.667 -17.333 121.667 -52 159c-37.333 40 -93.666 60 -168.999 60c-61.333 0 -111.666 -22 -150.999 -66s-59 -96.333 -59 -157v-529h-159v1242h153v-508l40 37c17.333 16 38.333 30.667 63 44c28.667 15.333 57 27 85 35
c34 10 71.667 15 113 15c42.667 0 81.834 -5.66699 117.501 -17s65.834 -30 90.501 -56c28 -29.333 48.333 -67 61 -113s19 -97.333 19 -154v-525z" />
    <glyph glyph-name="i" unicode="i" horiz-adv-x="434" 
d="M324 1113c0 -26.667 -9.66699 -49.333 -29 -68s-42.333 -28 -69 -28c-26 0 -48.833 9.16699 -68.5 27.5s-29.5 40.5 -29.5 66.5c0 26.667 9.16699 49.5 27.5 68.5s40.833 28.5 67.5 28.5c28 0 51.833 -9.16699 71.5 -27.5s29.5 -40.833 29.5 -67.5zM310 0.000976562h-164
v841h164v-841z" />
    <glyph glyph-name="j" unicode="j" horiz-adv-x="412" 
d="M297 1113c0 -26.667 -9.5 -49.5 -28.5 -68.5s-41.833 -28.5 -68.5 -28.5c-27.333 0 -50.5 9.16699 -69.5 27.5s-28.5 40.833 -28.5 67.5s8.83301 49.5 26.5 68.5s40.167 28.5 67.5 28.5c28 0 51.833 -9.16699 71.5 -27.5s29.5 -40.833 29.5 -67.5zM280 -147
c0 -54 -9.00098 -103.833 -27.001 -149.5s-42.667 -81.5 -74 -107.5c-26.667 -21.333 -53.167 -36.666 -79.5 -45.999s-56.833 -14 -91.5 -14v77c18.667 3.33301 29.334 5.66602 32.001 6.99902c14 6 28.333 18 43 36c23.333 28.667 35 72.667 35 132l1 1053h161v-988z" />
    <glyph glyph-name="k" unicode="k" horiz-adv-x="824" 
d="M771 53l-132 -67l-376 472v-458h-160v1242h160v-741h22l326 360l113 -60l-310 -323z" />
    <glyph glyph-name="l" unicode="l" horiz-adv-x="418" 
d="M286 0h-161v1242h161v-1242z" />
    <glyph glyph-name="m" unicode="m" horiz-adv-x="1423" 
d="M1339 -1l-153.999 -0.000976562v532c0 73.333 -12.333 127 -37 161c-31.333 44 -87 66 -167 66c-59.333 0 -105.666 -20.5 -138.999 -61.5s-50 -98.833 -50 -173.5v-524h-154v533c0 68.667 -14.667 121.334 -44 158.001c-33.333 41.333 -85.333 62 -156 62
c-62.667 0 -112 -23 -148 -69c-32 -41.333 -48 -93.333 -48 -156v-528l-155 1v841h152v-105l35 35c15.333 15.333 34.666 30 57.999 44s46.833 24.833 70.5 32.5s44.5 12.834 62.5 15.501s36.333 4 55 4c21.333 0 42.5 -2.33301 63.5 -7s41.167 -11 60.5 -19
c37.333 -15.333 66.666 -35.333 87.999 -60l33 -38l54 41c18.667 14.667 37.167 27.167 55.5 37.5s41.5 20.5 69.5 30.5c36.667 13.333 76.334 20 119.001 20c39.333 0 76.166 -6.16699 110.499 -18.5s64.5 -32.833 90.5 -61.5c31.333 -34 52.333 -74.333 63 -121
c8 -34.667 12 -84.334 12 -149.001v-523z" />
    <glyph glyph-name="n" unicode="n" horiz-adv-x="912" 
d="M829 -1h-154.002v535c0 67.333 -17 119.666 -51 156.999c-37.333 40.667 -93.333 61 -168 61c-61.333 0 -111.666 -21.667 -150.999 -65s-59 -95.666 -59 -156.999v-531l-159 1v841h153v-106l40 37c17.333 16 38.333 30.667 63 44c28.667 15.333 58.334 27.333 89.001 36
s65.667 13 105 13c42 0 81.667 -6 119 -18s68.333 -30.667 93 -56c28 -28.667 48.333 -66 61 -112s19 -97.333 19 -154v-526z" />
    <glyph glyph-name="o" unicode="o" horiz-adv-x="1004" 
d="M924 417c0 -124.667 -40.001 -228.667 -120.001 -312s-178 -125 -294 -125c-128 0 -231.667 44.667 -311 134c-74 83.333 -111 184.333 -111 303c0 127.333 38 233 114 317c78.667 87.333 181.334 131 308.001 131c122 0 222.333 -44.667 301 -134
c75.333 -85.333 113 -190 113 -314zM759.999 417c0 107.333 -22.501 191.166 -67.501 251.499s-105.833 90.5 -182.5 90.5c-79.333 0 -142.166 -30.167 -188.499 -90.5s-69.5 -144.166 -69.5 -251.499c0 -87.333 20.667 -162 62 -224c48 -72 113.333 -108 196 -108
c82 0 145 32 189 96c40.667 59.333 61 138 61 236z" />
    <glyph glyph-name="p" unicode="p" horiz-adv-x="988" 
d="M924 347c-12.667 -106 -54.6689 -193.833 -126.002 -263.5s-152.666 -104.5 -243.999 -104.5c-54 0 -102.833 7.5 -146.5 22.5s-79.5 37.167 -107.5 66.5l-34 36v-531h-156v1268h143v-128l49 53c26 29.333 64.333 52.833 115 70.5s99.667 26.5 147 26.5
c110.667 0 199.334 -38 266.001 -114s100 -179 100 -309c0 -30 -2 -61 -6 -93zM771.998 407c0 93.333 -18.334 171.333 -55.001 234c-45.333 77.333 -111.666 116 -198.999 116c-88 0 -155.333 -36.333 -202 -109c-40 -62 -60 -138.333 -60 -229c0 -97.333 21 -176 63 -236
c46 -66 110.333 -99 193 -99c82 0 145.833 28.167 191.5 84.5s68.5 135.833 68.5 238.5z" />
    <glyph glyph-name="q" unicode="q" horiz-adv-x="983" 
d="M883 -428h-138.999v559l-50 -52c-28.667 -30 -66.167 -55.167 -112.5 -75.5s-94.833 -30.5 -145.5 -30.5c-96 0 -178.833 34.667 -248.5 104s-109.834 160 -120.501 272c-2 24 -3 46.667 -3 68c0 128 35.667 232 107 312c67.333 75.333 153.666 118 258.999 128
c8 0.666992 15 1.16699 21 1.5s11 0.5 15 0.5c46 0 89.833 -7.16699 131.5 -21.5s74.834 -34.5 99.501 -60.5l38 -40v104h148v-1269zM738.001 422c0 92 -20 167.667 -60 227c-46.667 69.333 -114.667 104 -204 104c-87.333 0 -153 -36.333 -197 -109
c-36.667 -60.667 -55 -139 -55 -235c0 -100.667 22.833 -180.667 68.5 -240s108.167 -89 187.5 -89c82 0 146.667 34 194 102c44 63.333 66 143.333 66 240z" />
    <glyph glyph-name="r" unicode="r" horiz-adv-x="630" 
d="M578 783l-68.002 -96c-9.33301 8 -25.666 15.833 -48.999 23.5s-45 11.5 -65 11.5c-4.66699 0 -10.334 -0.666992 -17.001 -2c-33.333 -6.66699 -60.666 -27.667 -81.999 -63c-23.333 -38.667 -35 -87.334 -35 -146.001v-511h-154v841h151v-125l63 82
c16.667 21.333 30 36 40 44c15.333 12.667 28.5 19.834 39.5 21.501s20.833 2.5 29.5 2.5c32.667 0 65.334 -11.333 98.001 -34c26 -18 42.333 -34.333 49 -49z" />
    <glyph glyph-name="s" unicode="s" horiz-adv-x="713" 
d="M624 197c0 -59.333 -27.834 -109.998 -83.501 -151.998s-118.5 -63 -188.5 -63c-50 0 -95.833 7.16699 -137.5 21.5s-76.834 34.166 -105.501 59.499l-30 26l73 81l40 -34c38.667 -32 88 -48 148 -48c35.333 0 65.5 9.16699 90.5 27.5s39.167 43.166 42.5 74.499
c0.666992 4 1 10 1 18c0 29.333 -8.16699 56.166 -24.5 80.499s-57.5 59.5 -123.5 105.5c-47.333 32.667 -77.666 54.334 -90.999 65.001c-35.333 28 -61 55 -77 81c-20.667 32.667 -31 69.667 -31 111c0 61.333 27 113 81 155c50.667 39.333 109.334 59 176.001 59
c42 0 77.667 -3.66699 107 -11s59.333 -21.333 90 -42l27 -18l-60 -77l-32 20c-21.333 11.333 -40.833 18.833 -58.5 22.5s-42.167 5.5 -73.5 5.5c-30 0 -56.167 -9 -78.5 -27s-33.5 -41 -33.5 -69c0 -34 20 -66.333 60 -97l109 -77l92 -77
c31.333 -28.667 53.333 -57 66 -85c16.667 -36 25 -81.333 25 -136z" />
    <glyph glyph-name="t" unicode="t" horiz-adv-x="716" 
d="M627 37l-65.001 -30.999c-28 -14 -64 -21 -108 -21c-34.667 0 -68.167 5 -100.5 15s-59.833 25.667 -82.5 47c-26 24 -44.667 59.667 -56 107c-8 33.333 -12 71.666 -12 114.999v483h-119v89h119v203l150 53v-256h218v-89h-218v-443c0 -56 2.33301 -96.333 7 -121
c8 -42 25 -71 51 -87c9.33301 -6 19.333 -10.833 30 -14.5s23.334 -5.5 38.001 -5.5c13.333 0 25.833 1.66699 37.5 5s25.167 8.33301 40.5 15l33 16z" />
    <glyph glyph-name="u" unicode="u" horiz-adv-x="912" 
d="M829 0l-151 -0.000976562v106l-40 -37c-17.333 -14.667 -39.5 -29.5 -66.5 -44.5s-55.667 -26.833 -86 -35.5s-65.166 -13 -104.499 -13c-42.667 0 -82.667 6 -120 18s-68.333 31 -93 57c-27.333 28.667 -47.333 66 -60 112s-19 97 -19 153v525h154v-534
c0 -67.333 17 -119.666 51 -156.999c36.667 -40.667 92.667 -61 168 -61c61.333 0 111.666 21.833 150.999 65.5s59 96.167 59 157.5v529h157v-841z" />
    <glyph glyph-name="v" unicode="v" horiz-adv-x="896" 
d="M857 833l-356 -833h-96l-357 813l144 43l271 -652l266 656z" />
    <glyph glyph-name="w" unicode="w" horiz-adv-x="1396" 
d="M1352 842l-297 -842h-101l-253 648l-252 -648h-101l-296 816l136 41l225 -658l249 645h97l254 -639l211 661z" />
    <glyph glyph-name="x" unicode="x" horiz-adv-x="852" 
d="M811 67l-135 -69l-260 371l-264 -377l-108 68l304 399l-264 341l134 67l218 -308l220 313l106 -53l-258 -344z" />
    <glyph glyph-name="y" unicode="y" horiz-adv-x="890" 
d="M854 837l-437.001 -1007c-26.667 -62.667 -56.667 -112 -90 -148c-39.333 -42.667 -87.333 -71.667 -144 -87c-17.333 -4.66699 -37.333 -8.16699 -60 -10.5s-44 -3.5 -64 -3.5c-15.333 0 -27 0.666992 -35 2v111c4 -1.33301 9.16699 -2.33301 15.5 -3s12.833 -1 19.5 -1
c20.667 0 41.834 2 63.501 6s41.167 9 58.5 15s36.5 20 57.5 42s35.5 41.667 43.5 59l110 240l-350 767l147 44l268 -651l272 658z" />
    <glyph glyph-name="z" unicode="z" horiz-adv-x="880" 
d="M799 0h-712v48l520 691h-427v102h610v-69l-490 -669h499v-103z" />
    <glyph glyph-name="braceleft" unicode="{" horiz-adv-x="592" 
d="M511 1185c-32 -7.33301 -57.8301 -17.8389 -77.4971 -31.5059s-35.5 -33.834 -47.5 -60.501c-8.66699 -19.333 -14.667 -39.333 -18 -60s-5 -45 -5 -73v-254c0 -26 -5.16699 -52.333 -15.5 -79s-25.5 -51 -45.5 -73c-10.667 -12 -23.334 -24 -38.001 -36
s-28 -21.333 -40 -28c28.667 -15.333 54.834 -36.166 78.501 -62.499s39.834 -54.666 48.501 -84.999s13 -66.166 13 -107.499v-238c0 -29.333 2.66699 -54.666 8 -75.999c8 -31.333 21.667 -56.666 41 -75.999c28 -26.667 59 -42.667 93 -48v-73
c-6.66699 -1.33301 -14.334 -2.33301 -23.001 -3s-17.334 -1 -26.001 -1c-34 0 -65.833 5.33301 -95.5 16s-54.5 27.667 -74.5 51c-28 32.667 -47.167 68.334 -57.5 107.001s-15.5 85.334 -15.5 140.001v235c0 18 -3.5 39.5 -10.5 64.5s-15.833 44.5 -26.5 58.5
c-22.667 30.667 -53.667 51 -93 61v75c17.333 4 32.166 9.5 44.499 16.5s24.5 16.833 36.5 29.5c16 16.667 27.667 36.5 35 59.5s11 43.833 11 62.5v264c0 92.667 25 168.667 75 228c17.333 21.333 45.666 39.5 84.999 54.5s77.333 22.5 114 22.5
c4 0 8.66699 -0.333008 14 -1s9.33301 -1 12 -1v-78z" />
    <glyph glyph-name="bar" unicode="|" horiz-adv-x="275" 
d="M199 -428h-117v1611h115z" />
    <glyph glyph-name="braceright" unicode="}" horiz-adv-x="586" 
d="M505 452c-17.333 -4.66699 -32.334 -10.5 -45.001 -17.5s-24.667 -16.833 -36 -29.5c-15.333 -16.667 -26.833 -36.334 -34.5 -59.001s-11.5 -43.334 -11.5 -62.001v-264c0 -93.333 -24.667 -169.666 -74 -228.999c-17.333 -21.333 -45.666 -39.5 -84.999 -54.5
s-77.333 -22.5 -114 -22.5h-13c-6 1.33301 -10.333 2 -13 2v78c31.333 6.66699 56.333 16.667 75 30c22 15.333 38.667 36.333 50 63c8 18 13.667 38 17 60s5 46.333 5 73v254c0 26.667 5.16699 53.167 15.5 79.5s25.833 50.5 46.5 72.5
c11.333 12.667 24.166 24.834 38.499 36.501s27.5 20.5 39.5 26.5c-28 14.667 -54.167 35.667 -78.5 63s-40.833 55.833 -49.5 85.5s-13 65.5 -13 107.5v238c0 29.333 -2.66699 54.666 -8 75.999c-7.33301 30.667 -21 56 -41 76c-13.333 13.333 -27.333 23.833 -42 31.5
s-31.667 12.834 -51 15.501v73c14 2.66699 30.667 4 50 4c34 0 65.833 -5.33301 95.5 -16s54.5 -27.667 74.5 -51c28.667 -32.667 48.334 -70 59.001 -112c8.66699 -34 13 -79 13 -135v-235c0 -18 3.5 -39.167 10.5 -63.5s15.833 -43.833 26.5 -58.5
c22.667 -30 53.667 -50.333 93 -61v-75z" />
    <glyph glyph-name="asciitilde" unicode="~" horiz-adv-x="809" 
d="M725 1182l-3.99805 -19.999c-11.333 -52 -34.333 -93.333 -69 -124c-38 -33.333 -86 -50 -144 -50c-35.333 0 -79 11.833 -131 35.5s-91 35.5 -117 35.5c-8.66699 0 -20.167 -0.833008 -34.5 -2.5s-27.5 -8.83398 -39.5 -21.501l-31 -45h-77c18 52 33.667 87.667 47 107
c35.333 50.667 84.666 76 147.999 76c40.667 0 87.667 -12.833 141 -38.5s97.666 -38.5 132.999 -38.5c22 0 43 9 63 27c15.333 14 26 28.333 32 43l6 16h77z" />
    <glyph glyph-name="nonbreakingspace" unicode="&#xa0;" horiz-adv-x="826" 
 />
    <glyph glyph-name="exclamdown" unicode="&#xa1;" horiz-adv-x="391" 
d="M300 751c0 -29.333 -10.832 -54.499 -32.499 -75.499s-47.834 -31.5 -78.501 -31.5s-57.167 10.5 -79.5 31.5s-33.5 46.833 -33.5 77.5s11.667 57 35 79s51 33 83 33c29.333 0 54.333 -11.333 75 -34s31 -49.334 31 -80.001zM259.001 -388.999h-153v610l25 313h108
l20 -313v-610z" />
    <glyph glyph-name="cent" unicode="&#xa2;" horiz-adv-x="863" 
d="M793 270l-57.001 -32c-22 -12.667 -51.333 -24.334 -88 -35.001c-46 -13.333 -88.333 -20 -127 -20h-19c-4.66699 0.666992 -8.33398 1 -11.001 1c-6 0 -13.667 1.16699 -23 3.5l-22 5.5l-28 -119h-112l32 147l-30 15c-29.333 14 -56.333 31.667 -81 53
c-42 35.333 -74.333 75.666 -97 120.999c-30.667 60.667 -46 130.667 -46 210c0 126.667 39.333 232.334 118 317.001c81.333 87.333 184.333 131 309 131h16l26 113h115l-30 -125l23.5 -5c6.33301 -1.33301 21.833 -6.83301 46.5 -16.5s47 -20.5 67 -32.5l-58 -87
c-6 3.33301 -14.5 7.33301 -25.5 12s-20.5 8.33398 -28.5 11.001l-49 13l-144 -647c2.66699 -0.666992 7.83398 -2.16699 15.501 -4.5s16.334 -4.33301 26.001 -6s21.167 -2.5 34.5 -2.5c27.333 0 56 4 86 12s58 19 84 33l35 20zM501.999 955l-25 -2.99902
c-71.333 -12.667 -128.5 -50.167 -171.5 -112.5s-64.5 -140.833 -64.5 -235.5c0 -54.667 9.83301 -101.834 29.5 -141.501s51.167 -78.167 94.5 -115.5z" />
    <glyph glyph-name="sterling" unicode="&#xa3;" horiz-adv-x="1048" 
d="M977 88l-49.999 -41.0029c-26.667 -22.667 -58 -39.334 -94 -50.001s-69 -16 -99 -16c-44.667 0 -126.334 8.33301 -245.001 25c-57.333 8 -108.333 12 -153 12c-75.333 0 -125 -1 -149 -3l-101 -13v107c32.667 10.667 61 24.834 85 42.501s42.667 39 56 64
s23 51.5 29 79.5c2 10.667 6.33301 38.667 13 84l30 206h-174v95h184l13 108c5.33301 42.667 9.66602 73.334 12.999 92.001c6.66699 32.667 16.334 66 29.001 100c25.333 67.333 65.166 120.333 119.499 159s120.166 61.667 197.499 69c4.66699 0.666992 9.5 1 14.5 1h12.5
c39.333 0 79.5 -6.66699 120.5 -20s73.167 -32.333 96.5 -57l37 -38l-70 -69l-43 29c-13.333 8.66699 -33.666 17 -60.999 25s-54.333 12 -81 12c-12.667 0 -25.667 -1 -39 -3c-46 -8 -82.667 -29.667 -110 -65c-22 -28.667 -38.667 -67 -50 -115
c-6 -25.333 -12.667 -68.666 -20 -129.999l-12 -98h248v-95h-259l-23 -200c-5.33301 -42 -14.666 -82.667 -27.999 -122c-8.66699 -25.333 -20.334 -47.666 -35.001 -66.999c-12 -16 -29.667 -34.333 -53 -55l88 -8c46 0 104.667 -3.83301 176 -11.5s116 -11.5 134 -11.5
c44.667 0 81.334 6.66699 110.001 20c30 18.667 53 32 69 40z" />
    <glyph glyph-name="yen" unicode="&#xa5;" horiz-adv-x="1043" 
d="M1007 1172l-284 -461h239v-95h-294l-71 -114h364v-95h-365l1 -407h-157l-1 411h-352v94h355l-63 113h-290v95h238l-246 446l169 36l290 -573l323 570z" />
    <glyph glyph-name="section" unicode="&#xa7;" horiz-adv-x="912" 
d="M832 434c-4 -43.333 -25.3311 -82.6699 -63.998 -118.003s-82.667 -57.666 -132 -66.999l-62 -12l65 -46c39.333 -28 68.666 -55.333 87.999 -82c22.667 -31.333 36 -68 40 -110c0 -80 -38.667 -143.333 -116 -190c-68.667 -41.333 -151.334 -62 -248.001 -62
c-38.667 0 -81.334 5.83301 -128.001 17.5s-86 26.5 -118 44.5l-60 33l58 100l51 -30c20.667 -12 49.334 -24.167 86.001 -36.5s67.334 -18.5 92.001 -18.5c58.667 0 105.667 7.33301 141 22c48 20 72 51.333 72 94c0 32 -12.333 62.333 -37 91
c-20.667 24 -51.667 48.667 -93 74c-14.667 8.66699 -53.334 30.334 -116.001 65.001c-58 32 -98.667 56 -122 72c-46 32 -81 64.667 -105 98c-29.333 41.333 -44 87.333 -44 138c0 48 20.333 91 61 129c36.667 34 83.667 59 141 75l52 14l-58 40
c-50 33.333 -84.667 61.333 -104 84c-28.667 34 -43 73.333 -43 118c0 10 0.333008 17.667 1 23c6.66699 66.667 45.334 119.334 116.001 158.001c59.333 32.667 125.333 49 198 49c45.333 0 87.333 -4 126 -12c51.333 -10.667 97 -28 137 -52l38 -23l-67 -73l-54 26
c-12.667 6.66699 -34.334 13.334 -65.001 20.001c-38 8.66699 -70.667 13 -98 13c-48 0 -86.333 -7.66699 -115 -23c-36.667 -20 -55 -51 -55 -93c0 -26 15.667 -53.667 47 -83c24.667 -23.333 61.667 -50.333 111 -81l127.5 -80l123.5 -80
c43.333 -31.333 75 -60.333 95 -87c25.333 -34.667 38 -73.334 38 -116.001v-14c-0.666992 -4 -1 -7 -1 -9zM668.002 437.996c2.66699 28 -7.33398 56.002 -30.001 84.002c-19.333 23.333 -47 45.666 -83 66.999l-124 75l-55 -15
c-37.333 -10.667 -67.666 -27.5 -90.999 -50.5s-35 -51.833 -35 -86.5s14 -67 42 -97c23.333 -25.333 57.333 -49.333 102 -72l76 -40l73 16c34 7.33301 62.333 20.666 85 39.999c26.667 22.667 40 49 40 79z" />
    <glyph glyph-name="dieresis" unicode="&#xa8;" horiz-adv-x="689" 
d="M610 1107c2.66699 -26.667 -5.5 -49.667 -24.5 -69s-42.167 -29 -69.5 -29c-24 0 -44.667 9 -62 27s-26 39.667 -26 65c0 23.333 8 43.333 24 60s35.667 26 59 28c26 0 49 -7.66699 69 -23s30 -35 30 -59zM263 1104c2.66699 -26.667 -5.66699 -49.6689 -25 -69.002
s-42.333 -29 -69 -29c-24 0 -44.667 9 -62 27s-26 39.667 -26 65c0 22.667 8 42.334 24 59.001s35.667 26 59 28c26 0 49 -7.66699 69 -23s30 -34.666 30 -57.999z" />
    <glyph glyph-name="copyright" unicode="&#xa9;" horiz-adv-x="1326" 
d="M671 0c-183.333 0 -328.667 60.334 -436 181.001c-97.333 109.333 -146 242.666 -146 399.999c0 158 48.333 291.333 145 400c108 121.333 253.667 182 437 182s328.666 -60.667 435.999 -182c96.667 -108.667 145 -242 145 -400c0 -156.667 -48.333 -289.667 -145 -399
c-107.333 -121.333 -252.666 -182 -435.999 -182zM670.999 62.001c163.333 0 293 54 389 162c86.667 97.333 130 216.333 130 357c0 141.333 -43 260.333 -129 357c-96.667 108.667 -226.667 163 -390 163s-293 -54 -389 -162c-86.667 -98 -130 -217.333 -130 -358
c0 -141.333 43 -260.333 129 -357c96 -108 226 -162 390 -162zM957.999 464.001c-13.333 -75.333 -47.502 -135.333 -102.502 -180s-122.167 -67 -201.5 -67c-100.667 0 -175.667 37.667 -225 113c-41.333 62.667 -62 145 -62 247s25.333 187.333 76 256
c56.667 76.667 134 115 232 115c68.667 0 127.334 -16.667 176.001 -50c52.667 -36 84 -85 94 -147l5 -27h-69l-5 22c-10 44 -34.167 78.167 -72.5 102.5s-81.5 36.5 -129.5 36.5c-82 0 -144 -32.333 -186 -97c-35.333 -54 -53 -124 -53 -210s13.333 -152 40 -198
c35.333 -60.667 96.333 -96 183 -106c4.66699 -0.666992 11.334 -1 20.001 -1c49.333 0 94 18.333 134 55s65.333 82 76 136h70z" />
    <glyph glyph-name="ordfeminine" unicode="&#xaa;" horiz-adv-x="685" 
d="M598 564l-119.995 -0.000976562c-5.33301 10.667 -9 18.5 -11 23.5s-3.66699 12.5 -5 22.5s-2.33301 20 -3 30s-1 20.667 -1 32l-44 -41c-30 -27.333 -47.333 -42.666 -52 -45.999c-32.667 -25.333 -66.334 -38 -101.001 -38c-56.667 0 -101 19 -133 57
c-29.333 35.333 -44 81 -44 137c0 48.667 20.667 91.667 62 129c33.333 30 76.333 53.333 129 70l178 57c0 26 -7.33301 49 -22 69c-24.667 36.667 -59 55 -103 55c-46.667 0 -87.667 -11.667 -123 -35l-44 -30l-41 53l48 35c17.333 12 41.666 23 72.999 33
s62.666 15 93.999 15c77.333 0 136.666 -20.667 177.999 -62c34 -34 51 -74 51 -120v-262l3 -53v-46c1.33301 -15.333 5.66602 -31 12.999 -47zM637.005 404.999h-601v68h601v-68zM458.005 924.999l-59.998 -16c-10 -2.66699 -23.5 -6.83398 -40.5 -12.501
s-36.5 -13.167 -58.5 -22.5c-32 -13.333 -57.167 -32.166 -75.5 -56.499s-27.5 -52.833 -27.5 -85.5c0 -30.667 9 -54.667 27 -72s40.333 -26 67 -26c7.33301 0 15.166 1 23.499 3s16.166 4.66699 23.499 8c36.667 18 65.5 46.167 86.5 84.5s31.5 81.5 31.5 129.5z" />
    <glyph glyph-name="guillemotleft" unicode="&#xab;" horiz-adv-x="928" 
d="M846 629l-241 -172l236 -168v-174l-334 260v168l339 251v-165zM420 629l-240 -172l235 -168v-174l-334 260v168l339 251v-165z" />
    <glyph glyph-name="logicalnot" unicode="&#xac;" horiz-adv-x="1329" 
d="M1250 0h-95v406h-1069v90h1164v-496z" />
    <glyph glyph-name="registered" unicode="&#xae;" horiz-adv-x="1330" 
d="M676 0c-183.333 0 -328.667 60.334 -436 181.001c-97.333 109.333 -146 242.666 -146 399.999c0 158 48.333 291.333 145 400c108 121.333 253.667 182 437 182s328.666 -60.667 435.999 -182c96.667 -108.667 145 -242 145 -400c0 -156.667 -48.333 -289.667 -145 -399
c-107.333 -121.333 -252.666 -182 -435.999 -182zM675.999 62.001c163.333 0 293 54 389 162c86.667 97.333 130 216.333 130 357c0 141.333 -43 260.333 -129 357c-96.667 108.667 -226.667 163 -390 163s-293 -54 -389 -162c-86.667 -98 -130 -217.333 -130 -358
c0 -141.333 43 -260.333 129 -357c96 -108 226 -162 390 -162zM953.999 224.001l-73 0.00390625l-5 1c-10 20 -15.833 69.833 -17.5 149.5s-21.167 129.5 -58.5 149.5c-11.333 6 -23.333 10.167 -36 12.5s-26.334 3.5 -41.001 3.5h-29h-186v-316h-68v699h257
c74.667 0 132.334 -11 173.001 -33c54.667 -29.333 82 -79.333 82 -150c0 -43.333 -9.5 -78.833 -28.5 -106.5s-47.833 -49.834 -86.5 -66.501l38 -22c12 -8.66699 21.833 -20.667 29.5 -36s13 -31 16 -47s4.5 -33 4.5 -51c0 -6.66699 -0.333008 -17.334 -1 -32.001
s-1 -25.667 -1 -33c0 -15.333 1 -30.833 3 -46.5s6 -31.834 12 -48.501c2 -4.66699 4.33301 -9.33398 7 -14.001s5.66699 -9 9 -13zM884.999 732.005c0 49.333 -18.667 84.667 -56 106c-30 17.333 -70.333 26 -121 26h-200l1 -265l195 1c52 0 93 8.33301 123 25
c38.667 22 58 57.667 58 107z" />
    <glyph glyph-name="degree" unicode="&#xb0;" horiz-adv-x="657" 
d="M579 1099c0 -72.667 -24.667 -133.668 -74 -183.001s-110.333 -74 -183 -74c-66 0 -122.333 24.333 -169 73s-70 106.667 -70 174c0 66.667 24 123.334 72 170.001s105.667 70 173 70c68 0 126.833 -22 176.5 -66s74.5 -98.667 74.5 -164zM484 1087
c0 42 -15.833 77.5 -47.5 106.5s-69.167 43.5 -112.5 43.5c-40 0 -74.333 -15 -103 -45s-43 -65.667 -43 -107c0 -40 13.833 -74.5 41.5 -103.5s60.834 -43.5 99.501 -43.5c45.333 0 84.166 13.667 116.499 41s48.5 63.333 48.5 108z" />
    <glyph glyph-name="plusminus" unicode="&#xb1;" horiz-adv-x="817" 
d="M728 477h-286v-284h-74v284h-283l1 81h282v285h76v-286h284v-80zM721 -2h-648v62h648v-62z" />
    <glyph glyph-name="acute" unicode="&#xb4;" horiz-adv-x="570" 
d="M495 1193l-303 -222h-98l300 313z" />
    <glyph glyph-name="mu" unicode="&#xb5;" horiz-adv-x="1022" 
d="M950 169l-11.001 -51.999c-8.66699 -42.667 -34.334 -79 -77.001 -109c-38.667 -27.333 -76.667 -41 -114 -41c-6 0 -10.333 0.333008 -13 1c-38 6 -71.667 24.333 -101 55c-32 33.333 -48 71 -48 113l-43 -43c-34.667 -34.667 -72 -63.334 -112 -86.001
s-74.667 -34 -104 -34c-28.667 0 -60.667 8 -96 24c-42 19.333 -74.667 44.666 -98 75.999v-60c0 -35.333 10 -79.333 30 -132s30 -101 30 -145c0 -29.333 -7.33301 -54.333 -22 -75c-16.667 -23.333 -37.667 -35 -63 -35c-24 0 -43.667 10 -59 30s-23 43.333 -23 70
c0 35.333 4.33301 67 13 95c24.667 79.333 37.334 123 38.001 131c0 5.33301 0.666992 14 2 26s2 19 2 21v842h143v-578c0 -48 14.333 -90.167 43 -126.5s65.334 -54.5 110.001 -54.5c46 0 92 17.667 138 53c50 38 75 80 75 126v580h139v-654
c0 -34.667 8.16699 -66.5 24.5 -95.5s38.166 -43.5 65.499 -43.5c6 0 10.333 0.333008 13 1c18.667 4 34.334 12.333 47.001 25s22 29.334 28 50.001l12 45h31z" />
    <glyph glyph-name="paragraph" unicode="&#xb6;" horiz-adv-x="893" 
d="M826 -311h-109.001v1382h-202v-1384l-109 -2v855c-87.333 0 -162.333 31 -225 93s-94 137 -94 225c0 90 31.333 166.667 94 230s140.334 95 233.001 95l412 1v-1495z" />
    <glyph glyph-name="periodcentered" unicode="&#xb7;" horiz-adv-x="390" 
d="M301 567c0 -30.667 -10.6689 -57 -32.002 -79s-47.666 -33 -78.999 -33c-29.333 0 -54.833 11.167 -76.5 33.5s-32.5 48.833 -32.5 79.5c0 30 10.667 55.667 32 77s47 32 77 32c30.667 0 56.834 -10.833 78.501 -32.5s32.5 -47.5 32.5 -77.5z" />
    <glyph glyph-name="periodcentered" unicode="&#x2219;" horiz-adv-x="390" 
d="M301 567c0 -30.667 -10.6689 -57 -32.002 -79s-47.666 -33 -78.999 -33c-29.333 0 -54.833 11.167 -76.5 33.5s-32.5 48.833 -32.5 79.5c0 30 10.667 55.667 32 77s47 32 77 32c30.667 0 56.834 -10.833 78.501 -32.5s32.5 -47.5 32.5 -77.5z" />
    <glyph glyph-name="ordmasculine" unicode="&#xba;" horiz-adv-x="765" 
d="M687 873c0 -92 -27.666 -169.5 -82.999 -232.5s-127 -94.5 -215 -94.5c-92.667 0 -167.334 32.667 -224.001 98c-53.333 61.333 -80 137.333 -80 228c0 85.333 26.5 158.5 79.5 219.5s121.167 91.5 204.5 91.5c92 0 168 -29.667 228 -89s90 -133 90 -221zM686.001 405
h-601v68h601v-68zM568.001 873c0 78.667 -18.333 138 -55 178c-34 37.333 -82.333 56 -145 56c-54.667 0 -97 -26.667 -127 -80c-26 -46 -39 -101.667 -39 -167c0 -67.333 15 -123 45 -167c32.667 -48 76.667 -72 132 -72c66.667 0 116 25 148 75
c27.333 43.333 41 102.333 41 177z" />
    <glyph glyph-name="guillemotright" unicode="&#xbb;" horiz-adv-x="933" 
d="M854 375l-334 -260v174l236 168l-241 172v165l339 -251v-168zM429 375l-335 -260v174l236 168l-241 172v165l340 -251v-168z" />
    <glyph glyph-name="questiondown" unicode="&#xbf;" horiz-adv-x="797" 
d="M581 756c0 -30.667 -10.1689 -56.832 -30.502 -78.499s-45.166 -32.5 -74.499 -32.5c-32.667 0 -60.167 10.167 -82.5 30.5s-33.5 46.166 -33.5 77.499c0 30.667 11 57 33 79s48.667 33 80 33c30.667 0 56.334 -10.667 77.001 -32s31 -47 31 -77zM711.998 -239.998
l-39.002 -41.001c-35.333 -36 -75.666 -62.5 -120.999 -79.5s-96 -25.5 -152 -25.5c-93.333 0 -169 21.333 -227 64c-62.667 46 -94 109.667 -94 191c0 80 32 164.667 96 254l179 234c18.667 28.667 32.667 56.667 42 84c8.66699 41.333 14 65 16 71h124
c0 -33.333 -1.5 -61.166 -4.5 -83.499s-9.16699 -43.833 -18.5 -64.5c-19.333 -44 -52.666 -98 -99.999 -162c-53.333 -72 -88 -122 -104 -150c-32.667 -56.667 -49 -109.667 -49 -159c0 -46.667 14.333 -85.667 43 -117s67 -47 115 -47c38.667 0 74 6.33301 106 19
s59.333 31 82 55l32 33z" />
    <glyph glyph-name="Agrave" unicode="&#xc0;" horiz-adv-x="1131" 
d="M1083 0h-178l-125 351h-460l-128 -351h-146l476 1184h109zM739 469l-182 508l-194 -508h376zM779 1278h-103l-318 234l110 85z" />
    <glyph glyph-name="Aacute" unicode="&#xc1;" horiz-adv-x="1134" 
d="M1083 0h-178l-125 351h-460l-128 -351h-146l476 1184h109zM739 469l-182 508l-194 -508h376zM768 1494l-303 -222h-98l300 313z" />
    <glyph glyph-name="Acircumflex" unicode="&#xc2;" horiz-adv-x="1134" 
d="M1083 0h-178l-125 351h-460l-128 -351h-146l476 1184h109zM739 469l-182 508l-194 -508h376zM866 1273h-98l-190 186l-191 -183h-99l234 296h113z" />
    <glyph glyph-name="Atilde" unicode="&#xc3;" horiz-adv-x="1131" 
d="M1093 0h-178l-125 351h-460l-128 -351h-146l476 1184h109zM749 469l-182 508l-194 -508h376zM917 1470l-3.99805 -19.999c-11.333 -52 -34.333 -93.333 -69 -124c-38 -33.333 -86 -50 -144 -50c-35.333 0 -79 11.833 -131 35.5s-91 35.5 -117 35.5
c-8.66699 0 -20.167 -0.833008 -34.5 -2.5s-27.5 -8.83398 -39.5 -21.501l-31 -45h-77c18 52 33.667 87.667 47 107c35.333 50.667 84.666 76 147.999 76c40.667 0 87.667 -12.833 141 -38.5s97.666 -38.5 132.999 -38.5c22 0 43 9 63 27c15.333 14 26 28.333 32 43l6 16h77
z" />
    <glyph glyph-name="Adieresis" unicode="&#xc4;" horiz-adv-x="1125" 
d="M1083 0h-178l-125 351h-460l-128 -351h-146l476 1184h109zM739 469l-182 508l-194 -508h376zM845 1376c2.66699 -26.667 -5.5 -49.667 -24.5 -69s-42.167 -29 -69.5 -29c-24 0 -44.667 9 -62 27s-26 39.667 -26 65c0 23.333 8 43.333 24 60s35.667 26 59 28
c26 0 49 -7.66699 69 -23s30 -35 30 -59zM498 1373c2.66699 -26.667 -5.66699 -49.6689 -25 -69.002s-42.333 -29 -69 -29c-24 0 -44.667 9 -62 27s-26 39.667 -26 65c0 22.667 8 42.334 24 59.001s35.667 26 59 28c26 0 49 -7.66699 69 -23s30 -34.666 30 -57.999z" />
    <glyph glyph-name="Aring" unicode="&#xc5;" horiz-adv-x="1129" 
d="M759 1437c0 -48.667 -18.333 -90.001 -55 -124.001s-80.334 -51 -131.001 -51c-47.333 0 -87.666 18 -120.999 54s-50 78 -50 126c0 47.333 17 87.333 51 120s75 49 123 49c50 0 93 -16.667 129 -50s54 -74.666 54 -123.999zM677 1439
c0 27.333 -9.66797 50.001 -29.001 68.001s-43 27 -71 27c-25.333 0 -47.166 -9.16699 -65.499 -27.5s-27.5 -40.5 -27.5 -66.5s8.5 -49.167 25.5 -69.5s38.167 -30.5 63.5 -30.5c28.667 0 53.167 9.16699 73.5 27.5s30.5 42.166 30.5 71.499zM1083 0h-178l-125 351h-460
l-128 -351h-146l476 1184h109zM738.999 469l-182 508l-194 -508h376z" />
    <glyph glyph-name="AE" unicode="&#xc6;" horiz-adv-x="1452" 
d="M1382 0h-638l-1 351h-460l-253 -351h-145l896 1184h526v-117h-422v-386h414v-118h-414v-444h497v-119zM743 469v508l-375 -508h375z" />
    <glyph glyph-name="Ccedilla" unicode="&#xc7;" horiz-adv-x="1189" 
d="M1099 1083l-69.999 -99.9961l-75 42c-31.333 18 -69.333 31.333 -114 40s-96.334 13 -155.001 13c-124.667 0 -227 -50.333 -307 -151c-76.667 -96.667 -115 -215.667 -115 -357c0 -126.667 40.667 -236.334 122 -329.001c84 -96 186.667 -144 308 -144
c117.333 0 208.666 18 273.999 54l57 33l63 -99l-53 -26c-29.333 -14.667 -57.833 -27.334 -85.5 -38.001s-57 -19.5 -88 -26.5s-57.167 -11.833 -78.5 -14.5s-47.666 -4 -78.999 -4h-27l-33 -82h25h15c4 0.666992 8.33301 1 13 1c5.33301 0 9.66602 -0.333008 12.999 -1
c34.667 -4.66699 62.667 -15.334 84 -32.001c24.667 -20 37 -46.333 37 -79c0.666992 -4.66699 1 -8.33398 1 -11.001c0 -48 -24 -87.333 -72 -118c-43.333 -28 -93.666 -42 -150.999 -42c-26.667 0 -47.334 1.16699 -62.001 3.5s-33 7.83301 -55 16.5l-47 18l38 64l24 -12
c6 -2.66699 17.833 -5.66699 35.5 -9s33.5 -5 47.5 -5c5.33301 0.666992 9.33301 1 12 1c30 3.33301 54.333 10.333 73 21s28 26 28 46c-0.666992 4 -1 7 -1 9c-2.66699 18 -11.5 32.5 -26.5 43.5s-32.167 16.5 -51.5 16.5h-28c-10.667 0 -17.667 -0.333008 -21 -1
c-5.33301 -1.33301 -12.666 -4 -21.999 -8l-21 12l66 155l-16 3c-154.667 31.333 -274.667 95 -360 191c-90.667 102 -136 235 -136 399c0 171.333 59.667 317.333 179 438s263.333 181 432 181c70.667 0 132 -5.66699 184 -17s104 -31.333 156 -60z" />
    <glyph glyph-name="Egrave" unicode="&#xc8;" horiz-adv-x="812" 
d="M758 0h-661v1184h586v-117h-422v-386h414v-118h-414v-444h497v-119zM615 1274h-103l-318 234l110 85z" />
    <glyph glyph-name="Eacute" unicode="&#xc9;" horiz-adv-x="832" 
d="M758 0h-661v1184h586v-117h-422v-386h414v-118h-414v-444h497v-119zM648 1499l-303 -222h-98l300 313z" />
    <glyph glyph-name="Ecircumflex" unicode="&#xca;" horiz-adv-x="826" 
d="M758 0h-661v1184h586v-117h-422v-386h414v-118h-414v-444h497v-119zM677 1273h-98l-190 186l-191 -183h-99l234 296h113z" />
    <glyph glyph-name="Edieresis" unicode="&#xcb;" horiz-adv-x="812" 
d="M758 0h-661v1184h586v-117h-422v-386h414v-118h-414v-444h497v-119zM652 1373c2.66699 -26.667 -5.5 -49.667 -24.5 -69s-42.167 -29 -69.5 -29c-24 0 -44.667 9 -62 27s-26 39.667 -26 65c0 23.333 8 43.333 24 60s35.667 26 59 28c26 0 49 -7.66699 69 -23
s30 -35 30 -59zM305 1370c2.66699 -26.667 -5.66699 -49.6689 -25 -69.002s-42.333 -29 -69 -29c-24 0 -44.667 9 -62 27s-26 39.667 -26 65c0 22.667 8 42.334 24 59.001s35.667 26 59 28c26 0 49 -7.66699 69 -23s30 -34.666 30 -57.999z" />
    <glyph glyph-name="Igrave" unicode="&#xcc;" horiz-adv-x="422" 
d="M299 -7h-170v1184h170v-1184zM418 1267h-103l-318 234l110 85z" />
    <glyph glyph-name="Iacute" unicode="&#xcd;" 
d="M299 0h-170v1184h170v-1184zM403 1494l-303 -222h-98l300 313z" />
    <glyph glyph-name="Icircumflex" unicode="&#xce;" 
d="M307 0h-170v1184h170v-1184zM509 1273h-98l-190 186l-191 -183h-99l234 296h113z" />
    <glyph glyph-name="Idieresis" unicode="&#xcf;" 
d="M307 0h-170v1184h170v-1184zM505 1373c2.66699 -26.667 -5.5 -49.667 -24.5 -69s-42.167 -29 -69.5 -29c-24 0 -44.667 9 -62 27s-26 39.667 -26 65c0 23.333 8 43.333 24 60s35.667 26 59 28c26 0 49 -7.66699 69 -23s30 -35 30 -59zM158 1370
c2.66699 -26.667 -5.66699 -49.6689 -25 -69.002s-42.333 -29 -69 -29c-24 0 -44.667 9 -62 27s-26 39.667 -26 65c0 22.667 8 42.334 24 59.001s35.667 26 59 28c26 0 49 -7.66699 69 -23s30 -34.666 30 -57.999z" />
    <glyph glyph-name="Ntilde" unicode="&#xd1;" horiz-adv-x="1121" 
d="M1034 -4h-110l-699 920v-916h-138v1184h106l708 -932v932h133v-1188zM919 1465l-3.99805 -19.999c-11.333 -52 -34.333 -93.333 -69 -124c-38 -33.333 -86 -50 -144 -50c-35.333 0 -79 11.833 -131 35.5s-91 35.5 -117 35.5c-8.66699 0 -20.167 -0.833008 -34.5 -2.5
s-27.5 -8.83398 -39.5 -21.501l-31 -45h-77c18 52 33.667 87.667 47 107c35.333 50.667 84.666 76 147.999 76c40.667 0 87.667 -12.833 141 -38.5s97.666 -38.5 132.999 -38.5c22 0 43 9 63 27c15.333 14 26 28.333 32 43l6 16h77z" />
    <glyph glyph-name="Ograve" unicode="&#xd2;" horiz-adv-x="1344" 
d="M1272 597c0 -173.333 -53.667 -317.999 -161 -433.999c-111.333 -120.667 -256 -181 -434 -181c-168.667 0 -309.5 59.5 -422.5 178.5s-169.5 264.5 -169.5 436.5c0 163.333 56.167 305.166 168.5 425.499s247.5 180.5 405.5 180.5c186 0 335.667 -58.333 449 -175
c109.333 -112 164 -255.667 164 -431zM1086 597.001c0 137.333 -32 249.332 -96 335.999c-74 100.667 -183 151 -327 151c-122.667 0 -221 -50 -295 -150c-67.333 -91.333 -101 -203.666 -101 -336.999c0 -142.667 37.833 -261 113.5 -355s174.5 -141 296.5 -141
c123.333 0 222.333 45.167 297 135.5s112 210.5 112 360.5zM874 1274h-103l-318 234l110 85z" />
    <glyph glyph-name="Oacute" unicode="&#xd3;" horiz-adv-x="1344" 
d="M1272 597c0 -173.333 -53.667 -317.999 -161 -433.999c-111.333 -120.667 -256 -181 -434 -181c-168.667 0 -309.5 59.5 -422.5 178.5s-169.5 264.5 -169.5 436.5c0 163.333 56.167 305.166 168.5 425.499s247.5 180.5 405.5 180.5c186 0 335.667 -58.333 449 -175
c109.333 -112 164 -255.667 164 -431zM1086 597.001c0 137.333 -32 249.332 -96 335.999c-74 100.667 -183 151 -327 151c-122.667 0 -221 -50 -295 -150c-67.333 -91.333 -101 -203.666 -101 -336.999c0 -142.667 37.833 -261 113.5 -355s174.5 -141 296.5 -141
c123.333 0 222.333 45.167 297 135.5s112 210.5 112 360.5zM866 1494l-303 -222h-98l300 313z" />
    <glyph glyph-name="Ocircumflex" unicode="&#xd4;" horiz-adv-x="1344" 
d="M1272 597c0 -173.333 -53.667 -317.999 -161 -433.999c-111.333 -120.667 -256 -181 -434 -181c-168.667 0 -309.5 59.5 -422.5 178.5s-169.5 264.5 -169.5 436.5c0 163.333 56.167 305.166 168.5 425.499s247.5 180.5 405.5 180.5c186 0 335.667 -58.333 449 -175
c109.333 -112 164 -255.667 164 -431zM1086 597.001c0 137.333 -32 249.332 -96 335.999c-74 100.667 -183 151 -327 151c-122.667 0 -221 -50 -295 -150c-67.333 -91.333 -101 -203.666 -101 -336.999c0 -142.667 37.833 -261 113.5 -355s174.5 -141 296.5 -141
c123.333 0 222.333 45.167 297 135.5s112 210.5 112 360.5zM964 1273h-98l-190 186l-191 -183h-99l234 296h113z" />
    <glyph glyph-name="Otilde" unicode="&#xd5;" horiz-adv-x="1353" 
d="M1272 597c0 -173.333 -53.667 -317.999 -161 -433.999c-111.333 -120.667 -256 -181 -434 -181c-168.667 0 -309.5 59.5 -422.5 178.5s-169.5 264.5 -169.5 436.5c0 163.333 56.167 305.166 168.5 425.499s247.5 180.5 405.5 180.5c186 0 335.667 -58.333 449 -175
c109.333 -112 164 -255.667 164 -431zM1086 597.001c0 137.333 -32 249.332 -96 335.999c-74 100.667 -183 151 -327 151c-122.667 0 -221 -50 -295 -150c-67.333 -91.333 -101 -203.666 -101 -336.999c0 -142.667 37.833 -261 113.5 -355s174.5 -141 296.5 -141
c123.333 0 222.333 45.167 297 135.5s112 210.5 112 360.5zM1025 1472l-3.99805 -19.999c-11.333 -52 -34.333 -93.333 -69 -124c-38 -33.333 -86 -50 -144 -50c-35.333 0 -79 11.833 -131 35.5s-91 35.5 -117 35.5c-8.66699 0 -20.167 -0.833008 -34.5 -2.5
s-27.5 -8.83398 -39.5 -21.501l-31 -45h-77c18 52 33.667 87.667 47 107c35.333 50.667 84.666 76 147.999 76c40.667 0 87.667 -12.833 141 -38.5s97.666 -38.5 132.999 -38.5c22 0 43 9 63 27c15.333 14 26 28.333 32 43l6 16h77z" />
    <glyph glyph-name="Odieresis" unicode="&#xd6;" horiz-adv-x="1348" 
d="M1272 597c0 -173.333 -53.667 -317.999 -161 -433.999c-111.333 -120.667 -256 -181 -434 -181c-168.667 0 -309.5 59.5 -422.5 178.5s-169.5 264.5 -169.5 436.5c0 163.333 56.167 305.166 168.5 425.499s247.5 180.5 405.5 180.5c186 0 335.667 -58.333 449 -175
c109.333 -112 164 -255.667 164 -431zM1086 597.001c0 137.333 -32 249.332 -96 335.999c-74 100.667 -183 151 -327 151c-122.667 0 -221 -50 -295 -150c-67.333 -91.333 -101 -203.666 -101 -336.999c0 -142.667 37.833 -261 113.5 -355s174.5 -141 296.5 -141
c123.333 0 222.333 45.167 297 135.5s112 210.5 112 360.5zM959 1378c2.66699 -26.667 -5.5 -49.667 -24.5 -69s-42.167 -29 -69.5 -29c-24 0 -44.667 9 -62 27s-26 39.667 -26 65c0 23.333 8 43.333 24 60s35.667 26 59 28c26 0 49 -7.66699 69 -23s30 -35 30 -59z
M612 1375c2.66699 -26.667 -5.66699 -49.6689 -25 -69.002s-42.333 -29 -69 -29c-24 0 -44.667 9 -62 27s-26 39.667 -26 65c0 22.667 8 42.334 24 59.001s35.667 26 59 28c26 0 49 -7.66699 69 -23s30 -34.666 30 -57.999z" />
    <glyph glyph-name=".null" unicode="&#xd7;" horiz-adv-x="0" 
 />
    <glyph glyph-name=".null" unicode="&#x141;" horiz-adv-x="0" 
 />
    <glyph glyph-name=".null" unicode="&#xfd;" horiz-adv-x="0" 
 />
    <glyph glyph-name="Oslash" unicode="&#xd8;" horiz-adv-x="1352" 
d="M1272 597c0 -173.333 -53.6689 -317.999 -161.002 -433.999c-111.333 -120.667 -256 -181 -434 -181c-60 0 -116.167 7.66699 -168.5 23s-102.166 38 -149.499 68l-89 -115l-80 63l89 115c-60.667 56.667 -108.167 125 -142.5 205s-51.5 165.333 -51.5 256
c0 163.333 56.167 305.166 168.5 425.499s247.5 180.5 405.5 180.5c70.667 0 136.334 -8.83301 197.001 -26.5s116 -43.5 166 -77.5l94 123l78 -68l-92 -120c54.667 -54 96.667 -118.667 126 -194s44 -156.333 44 -243zM937.998 990.001c-34.667 30.667 -74.5 54 -119.5 70
s-96.833 24 -155.5 24c-122.667 0 -221 -50 -295 -150c-67.333 -91.333 -101 -203.666 -101 -336.999c0 -66.667 8.83301 -128.834 26.5 -186.501s43.5 -109.5 77.5 -155.5zM1086 597.001c0 58.667 -6.50098 114.832 -19.501 168.499s-33.167 101.834 -60.5 144.501
l-563 -729c32 -26 67.833 -45.833 107.5 -59.5s81.834 -20.5 126.501 -20.5c123.333 0 222.333 45.167 297 135.5s112 210.5 112 360.5z" />
    <glyph glyph-name="Ugrave" unicode="&#xd9;" horiz-adv-x="1092" 
d="M1006 422c0 -73.333 -11.499 -137.003 -34.499 -191.003s-61.167 -105.333 -114.5 -154c-33.333 -30 -78.5 -54.167 -135.5 -72.5s-116.5 -27.5 -178.5 -27.5c-46.667 0 -91.834 5.16699 -135.501 15.5s-84.834 26.833 -123.501 49.5
c-70.667 40.667 -121.667 95.667 -153 165c-28 62 -42 138.667 -42 230v747h167v-733c0 -65.333 8.33301 -122.666 25 -171.999c22 -65.333 58 -112.166 108 -140.499s105.333 -42.5 166 -42.5c38.667 0 76.667 6.5 114 19.5s70 32.167 98 57.5
c32.667 30 55.334 70.667 68.001 122c10 40.667 15 94.334 15 161.001v728h156v-762zM762.001 1274h-103l-318 234l110 85z" />
    <glyph glyph-name="Uacute" unicode="&#xda;" horiz-adv-x="1092" 
d="M1006 422c0 -73.333 -11.499 -137.003 -34.499 -191.003s-61.167 -105.333 -114.5 -154c-33.333 -30 -78.5 -54.167 -135.5 -72.5s-116.5 -27.5 -178.5 -27.5c-46.667 0 -91.834 5.16699 -135.501 15.5s-84.834 26.833 -123.501 49.5
c-70.667 40.667 -121.667 95.667 -153 165c-28 62 -42 138.667 -42 230v747h167v-733c0 -65.333 8.33301 -122.666 25 -171.999c22 -65.333 58 -112.166 108 -140.499s105.333 -42.5 166 -42.5c38.667 0 76.667 6.5 114 19.5s70 32.167 98 57.5
c32.667 30 55.334 70.667 68.001 122c10 40.667 15 94.334 15 161.001v728h156v-762zM740.001 1494l-303 -222h-98l300 313z" />
    <glyph glyph-name="Ucircumflex" unicode="&#xdb;" horiz-adv-x="1092" 
d="M1006 422c0 -73.333 -11.499 -137.003 -34.499 -191.003s-61.167 -105.333 -114.5 -154c-33.333 -30 -78.5 -54.167 -135.5 -72.5s-116.5 -27.5 -178.5 -27.5c-46.667 0 -91.834 5.16699 -135.501 15.5s-84.834 26.833 -123.501 49.5
c-70.667 40.667 -121.667 95.667 -153 165c-28 62 -42 138.667 -42 230v747h167v-733c0 -65.333 8.33301 -122.666 25 -171.999c22 -65.333 58 -112.166 108 -140.499s105.333 -42.5 166 -42.5c38.667 0 76.667 6.5 114 19.5s70 32.167 98 57.5
c32.667 30 55.334 70.667 68.001 122c10 40.667 15 94.334 15 161.001v728h156v-762zM852.001 1273h-98l-190 186l-191 -183h-99l234 296h113z" />
    <glyph glyph-name="Udieresis" unicode="&#xdc;" horiz-adv-x="1093" 
d="M1006 422c0 -73.333 -11.499 -137.003 -34.499 -191.003s-61.167 -105.333 -114.5 -154c-33.333 -30 -78.5 -54.167 -135.5 -72.5s-116.5 -27.5 -178.5 -27.5c-46.667 0 -91.834 5.16699 -135.501 15.5s-84.834 26.833 -123.501 49.5
c-70.667 40.667 -121.667 95.667 -153 165c-28 62 -42 138.667 -42 230v747h167v-733c0 -65.333 8.33301 -122.666 25 -171.999c22 -65.333 58 -112.166 108 -140.499s105.333 -42.5 166 -42.5c38.667 0 76.667 6.5 114 19.5s70 32.167 98 57.5
c32.667 30 55.334 70.667 68.001 122c10 40.667 15 94.334 15 161.001v728h156v-762zM826.001 1378c2.66699 -26.667 -5.5 -49.667 -24.5 -69s-42.167 -29 -69.5 -29c-24 0 -44.667 9 -62 27s-26 39.667 -26 65c0 23.333 8 43.333 24 60s35.667 26 59 28
c26 0 49 -7.66699 69 -23s30 -35 30 -59zM479.001 1375c2.66699 -26.667 -5.66699 -49.6689 -25 -69.002s-42.333 -29 -69 -29c-24 0 -44.667 9 -62 27s-26 39.667 -26 65c0 22.667 8 42.334 24 59.001s35.667 26 59 28c26 0 49 -7.66699 69 -23s30 -34.666 30 -57.999z" />
    <glyph glyph-name="germandbls" unicode="&#xdf;" horiz-adv-x="1004" 
d="M923 208c0 -68.667 -30.3311 -124.666 -90.998 -167.999c-56 -40 -123.333 -60 -202 -60c-45.333 0 -85 4.83301 -119 14.5s-65.667 26.167 -95 49.5l-48 38l71 83l55 -40c14.667 -10.667 31.667 -20 51 -28s36 -12 50 -12c47.333 0 86.666 8.33301 117.999 25
c38.667 20.667 58 50.334 58 89.001v11c-2.66699 35.333 -12.667 63.333 -30 84c-14 16.667 -53.333 50 -118 100c-56.667 43.333 -93.667 74.666 -111 93.999c-32.667 36 -51.334 78 -56.001 126c-0.666992 4 -1 8.5 -1 13.5v11.5c0 34 23.333 101.333 70 202
c22 47.333 33 91.666 33 132.999c0 50.667 -16 89.667 -48 117s-75 41 -129 41c-47.333 0 -84 -18.667 -110 -56c-22.667 -32.667 -34 -74 -34 -124v-952h-150v959c0 80 26 145.667 78 197c54.667 54 126.667 81 216 81c88.667 0 158.667 -15 210 -45
c64.667 -37.333 102.667 -98.666 114 -183.999c1.33301 -6 2 -11.833 2 -17.5v-16.5c0 -41.333 -17 -95 -51 -161s-51 -118.667 -51 -158c0 -23.333 7.33301 -45 22 -65c8.66699 -12 41.667 -41.667 99 -89c50 -40.667 84.333 -70 103 -88c32 -30.667 55 -60.334 69 -89.001
c16.667 -34 25 -72.667 25 -116z" />
    <glyph glyph-name="agrave" unicode="&#xe0;" horiz-adv-x="849" 
d="M792 0l-160.998 -0.00488281c-5.33301 12 -9.83301 22.5 -13.5 31.5s-6.5 19.167 -8.5 30.5c-4 23.333 -6 44 -6 62c0 10.667 0.333008 19.334 1 26.001l-61 -58c-53.333 -50 -93.666 -81.667 -120.999 -95s-57.333 -20 -90 -20c-82 0 -144 26 -186 78
c-38 46.667 -57 109.667 -57 189c0 70 28.667 130 86 180c44 38.667 103.333 69.667 178 93l244 79c0 35.333 -10 67 -30 95c-34 49.333 -81.333 74 -142 74c-30.667 0 -60.667 -4.16699 -90 -12.5s-55.333 -20.166 -78 -35.499l-61 -41l-57 74l67 47
c23.333 16.667 56.5 31.667 99.5 45s86.167 20 129.5 20c105.333 0 186.666 -28 243.999 -84c47.333 -46 71 -100.667 71 -164l-1 -360c0 -23.333 1.16699 -48.666 3.5 -75.999s4.16602 -50.166 5.49902 -68.499s5.66602 -37.166 12.999 -56.499zM604.002 497.995
l-82.9971 -24c-25.333 -7.33301 -48 -14.5 -68 -21.5s-43 -16.167 -69 -27.5c-43.333 -18.667 -77.333 -44.5 -102 -77.5s-37 -71.833 -37 -116.5c0 -42 12.667 -75.333 38 -100c23.333 -22.667 52.666 -34 87.999 -34c23.333 0 45.666 5.33301 66.999 16
c51.333 24.667 91.166 63 119.499 115s42.5 111.333 42.5 178zM668.005 965.995h-103l-318 234l110 85z" />
    <glyph glyph-name="aacute" unicode="&#xe1;" horiz-adv-x="843" 
d="M792 0l-160.998 -0.00488281c-5.33301 12 -9.83301 22.5 -13.5 31.5s-6.5 19.167 -8.5 30.5c-4 23.333 -6 44 -6 62c0 10.667 0.333008 19.334 1 26.001l-61 -58c-53.333 -50 -93.666 -81.667 -120.999 -95s-57.333 -20 -90 -20c-82 0 -144 26 -186 78
c-38 46.667 -57 109.667 -57 189c0 70 28.667 130 86 180c44 38.667 103.333 69.667 178 93l244 79c0 35.333 -10 67 -30 95c-34 49.333 -81.333 74 -142 74c-30.667 0 -60.667 -4.16699 -90 -12.5s-55.333 -20.166 -78 -35.499l-61 -41l-57 74l67 47
c23.333 16.667 56.5 31.667 99.5 45s86.167 20 129.5 20c105.333 0 186.666 -28 243.999 -84c47.333 -46 71 -100.667 71 -164l-1 -360c0 -23.333 1.16699 -48.666 3.5 -75.999s4.16602 -50.166 5.49902 -68.499s5.66602 -37.166 12.999 -56.499zM604.002 497.995
l-82.9971 -24c-25.333 -7.33301 -48 -14.5 -68 -21.5s-43 -16.167 -69 -27.5c-43.333 -18.667 -77.333 -44.5 -102 -77.5s-37 -71.833 -37 -116.5c0 -42 12.667 -75.333 38 -100c23.333 -22.667 52.666 -34 87.999 -34c23.333 0 45.666 5.33301 66.999 16
c51.333 24.667 91.166 63 119.499 115s42.5 111.333 42.5 178zM682.005 1186l-303 -222h-98l300 313z" />
    <glyph glyph-name="acircumflex" unicode="&#xe2;" horiz-adv-x="865" 
d="M792 0l-160.998 -0.00488281c-5.33301 12 -9.83301 22.5 -13.5 31.5s-6.5 19.167 -8.5 30.5c-4 23.333 -6 44 -6 62c0 10.667 0.333008 19.334 1 26.001l-61 -58c-53.333 -50 -93.666 -81.667 -120.999 -95s-57.333 -20 -90 -20c-82 0 -144 26 -186 78
c-38 46.667 -57 109.667 -57 189c0 70 28.667 130 86 180c44 38.667 103.333 69.667 178 93l244 79c0 35.333 -10 67 -30 95c-34 49.333 -81.333 74 -142 74c-30.667 0 -60.667 -4.16699 -90 -12.5s-55.333 -20.166 -78 -35.499l-61 -41l-57 74l67 47
c23.333 16.667 56.5 31.667 99.5 45s86.167 20 129.5 20c105.333 0 186.666 -28 243.999 -84c47.333 -46 71 -100.667 71 -164l-1 -360c0 -23.333 1.16699 -48.666 3.5 -75.999s4.16602 -50.166 5.49902 -68.499s5.66602 -37.166 12.999 -56.499zM604.002 497.995
l-82.9971 -24c-25.333 -7.33301 -48 -14.5 -68 -21.5s-43 -16.167 -69 -27.5c-43.333 -18.667 -77.333 -44.5 -102 -77.5s-37 -71.833 -37 -116.5c0 -42 12.667 -75.333 38 -100c23.333 -22.667 52.666 -34 87.999 -34c23.333 0 45.666 5.33301 66.999 16
c51.333 24.667 91.166 63 119.499 115s42.5 111.333 42.5 178zM754.005 964.995h-98l-190 186l-191 -183h-99l234 296h113z" />
    <glyph glyph-name="atilde" unicode="&#xe3;" horiz-adv-x="854" 
d="M792 0l-160.998 -0.00488281c-5.33301 12 -9.83301 22.5 -13.5 31.5s-6.5 19.167 -8.5 30.5c-4 23.333 -6 44 -6 62c0 10.667 0.333008 19.334 1 26.001l-61 -58c-53.333 -50 -93.666 -81.667 -120.999 -95s-57.333 -20 -90 -20c-82 0 -144 26 -186 78
c-38 46.667 -57 109.667 -57 189c0 70 28.667 130 86 180c44 38.667 103.333 69.667 178 93l244 79c0 35.333 -10 67 -30 95c-34 49.333 -81.333 74 -142 74c-30.667 0 -60.667 -4.16699 -90 -12.5s-55.333 -20.166 -78 -35.499l-61 -41l-57 74l67 47
c23.333 16.667 56.5 31.667 99.5 45s86.167 20 129.5 20c105.333 0 186.666 -28 243.999 -84c47.333 -46 71 -100.667 71 -164l-1 -360c0 -23.333 1.16699 -48.666 3.5 -75.999s4.16602 -50.166 5.49902 -68.499s5.66602 -37.166 12.999 -56.499zM604.002 497.995
l-82.9971 -24c-25.333 -7.33301 -48 -14.5 -68 -21.5s-43 -16.167 -69 -27.5c-43.333 -18.667 -77.333 -44.5 -102 -77.5s-37 -71.833 -37 -116.5c0 -42 12.667 -75.333 38 -100c23.333 -22.667 52.666 -34 87.999 -34c23.333 0 45.666 5.33301 66.999 16
c51.333 24.667 91.166 63 119.499 115s42.5 111.333 42.5 178zM774.005 1161l-3.99805 -19.999c-11.333 -52 -34.333 -93.333 -69 -124c-38 -33.333 -86 -50 -144 -50c-35.333 0 -79 11.833 -131 35.5s-91 35.5 -117 35.5c-8.66699 0 -20.167 -0.833008 -34.5 -2.5
s-27.5 -8.83398 -39.5 -21.501l-31 -45h-77c18 52 33.667 87.667 47 107c35.333 50.667 84.666 76 147.999 76c40.667 0 87.667 -12.833 141 -38.5s97.666 -38.5 132.999 -38.5c22 0 43 9 63 27c15.333 14 26 28.333 32 43l6 16h77z" />
    <glyph glyph-name="adieresis" unicode="&#xe4;" horiz-adv-x="854" 
d="M792 0l-160.998 -0.00488281c-5.33301 12 -9.83301 22.5 -13.5 31.5s-6.5 19.167 -8.5 30.5c-4 23.333 -6 44 -6 62c0 10.667 0.333008 19.334 1 26.001l-61 -58c-53.333 -50 -93.666 -81.667 -120.999 -95s-57.333 -20 -90 -20c-82 0 -144 26 -186 78
c-38 46.667 -57 109.667 -57 189c0 70 28.667 130 86 180c44 38.667 103.333 69.667 178 93l244 79c0 35.333 -10 67 -30 95c-34 49.333 -81.333 74 -142 74c-30.667 0 -60.667 -4.16699 -90 -12.5s-55.333 -20.166 -78 -35.499l-61 -41l-57 74l67 47
c23.333 16.667 56.5 31.667 99.5 45s86.167 20 129.5 20c105.333 0 186.666 -28 243.999 -84c47.333 -46 71 -100.667 71 -164l-1 -360c0 -23.333 1.16699 -48.666 3.5 -75.999s4.16602 -50.166 5.49902 -68.499s5.66602 -37.166 12.999 -56.499zM604.002 497.995
l-82.9971 -24c-25.333 -7.33301 -48 -14.5 -68 -21.5s-43 -16.167 -69 -27.5c-43.333 -18.667 -77.333 -44.5 -102 -77.5s-37 -71.833 -37 -116.5c0 -42 12.667 -75.333 38 -100c23.333 -22.667 52.666 -34 87.999 -34c23.333 0 45.666 5.33301 66.999 16
c51.333 24.667 91.166 63 119.499 115s42.5 111.333 42.5 178zM738.005 1068c2.66699 -26.667 -5.5 -49.667 -24.5 -69s-42.167 -29 -69.5 -29c-24 0 -44.667 9 -62 27s-26 39.667 -26 65c0 23.333 8 43.333 24 60s35.667 26 59 28c26 0 49 -7.66699 69 -23s30 -35 30 -59z
M391.005 1065c2.66699 -26.667 -5.66699 -49.6689 -25 -69.002s-42.333 -29 -69 -29c-24 0 -44.667 9 -62 27s-26 39.667 -26 65c0 22.667 8 42.334 24 59.001s35.667 26 59 28c26 0 49 -7.66699 69 -23s30 -34.666 30 -57.999z" />
    <glyph glyph-name="aring" unicode="&#xe5;" horiz-adv-x="849" 
d="M629 1128c0 -48.667 -18.5 -89.833 -55.5 -123.5s-80.833 -50.5 -131.5 -50.5c-48 0 -88.333 17.5 -121 52.5s-49 77.167 -49 126.5c0 46.667 17 86.667 51 120s75 50 123 50c50 0 93 -16.667 129 -50s54 -75 54 -125zM547 1130c0 26.667 -9.83203 49.168 -29.499 67.501
s-43.167 27.5 -70.5 27.5c-25.333 0 -47.333 -9.33301 -66 -28s-28 -40.667 -28 -66c0 -26.667 8.66699 -50 26 -70s38.666 -30 63.999 -30c28.667 0 53.167 9.16699 73.5 27.5s30.5 42.166 30.5 71.499zM792.001 0.00195312l-160.998 -0.00488281
c-5.33301 12 -9.83301 22.5 -13.5 31.5s-6.5 19.167 -8.5 30.5c-4 23.333 -6 44 -6 62c0 10.667 0.333008 19.334 1 26.001l-61 -58c-53.333 -50 -93.666 -81.667 -120.999 -95s-57.333 -20 -90 -20c-82 0 -144 26 -186 78c-38 46.667 -57 109.667 -57 189
c0 70 28.667 130 86 180c44 38.667 103.333 69.667 178 93l244 79c0 35.333 -10 67 -30 95c-34 49.333 -81.333 74 -142 74c-30.667 0 -60.667 -4.16699 -90 -12.5s-55.333 -20.166 -78 -35.499l-61 -41l-57 74l67 47c23.333 16.667 56.5 31.667 99.5 45s86.167 20 129.5 20
c105.333 0 186.666 -28 243.999 -84c47.333 -46 71 -100.667 71 -164l-1 -360c0 -23.333 1.16699 -48.666 3.5 -75.999s4.16602 -50.166 5.49902 -68.499s5.66602 -37.166 12.999 -56.499zM604.003 497.997l-82.9971 -24c-25.333 -7.33301 -48 -14.5 -68 -21.5
s-43 -16.167 -69 -27.5c-43.333 -18.667 -77.333 -44.5 -102 -77.5s-37 -71.833 -37 -116.5c0 -42 12.667 -75.333 38 -100c23.333 -22.667 52.666 -34 87.999 -34c23.333 0 45.666 5.33301 66.999 16c51.333 24.667 91.166 63 119.499 115s42.5 111.333 42.5 178z" />
    <glyph glyph-name="ae" unicode="&#xe6;" horiz-adv-x="1416" 
d="M1322 413l-564.998 0.000976562c0 -4.66699 -0.166992 -9.83398 -0.5 -15.501s-0.5 -9.5 -0.5 -11.5c0 -80 27.667 -150 83 -210s120.333 -90 195 -90c38 0 71 3.5 99 10.5s58.333 20.167 91 39.5l43 26l48 -78l-72 -43c-66.667 -40.667 -147.334 -61 -242.001 -61
c-98.667 0 -181 26.667 -247 80c-39.333 32 -75.333 77 -108 135l-87 -99c-33.333 -38.667 -67 -67.334 -101 -86.001c-39.333 -22 -81.333 -33 -126 -33c-82 0 -144 26 -186 78c-38 46.667 -57 109.667 -57 189c0 70 28.667 130 86 180c44 38.667 103.333 69.667 178 93
l244 79c0 35.333 -10 67 -30 95c-34 49.333 -81.333 74 -142 74c-30.667 0 -60.667 -4.16699 -90 -12.5s-55.333 -20.166 -78 -35.499l-61 -41l-57 74l67 47c23.333 16.667 56.5 31.667 99.5 45s86.167 20 129.5 20c62.667 0 115.667 -8.66699 159 -26
s80.666 -46.666 111.999 -87.999c35.333 38.667 79.333 68 132 88c46 17.333 92.667 26 140 26c112 0 198.667 -37 260 -111c52 -62.667 78 -140.334 78 -233.001zM1179 508.001l-8 73c-5.33301 52 -25.666 94.667 -60.999 128s-80 50 -134 50
c-52 0 -97.333 -17.833 -136 -53.5s-63.334 -80.5 -74.001 -134.5l-11 -63h424zM604.002 498.001l-82.9971 -24c-25.333 -7.33301 -48 -14.5 -68 -21.5s-43 -16.167 -69 -27.5c-43.333 -18.667 -77.333 -44.5 -102 -77.5s-37 -71.833 -37 -116.5
c0 -42 12.667 -75.333 38 -100c23.333 -22.667 52.666 -34 87.999 -34c23.333 0 45.666 5.33301 66.999 16c51.333 24.667 91.166 63 119.499 115s42.5 111.333 42.5 178z" />
    <glyph glyph-name="ccedilla" unicode="&#xe7;" horiz-adv-x="880" 
d="M795 67l-54.9961 -31.002c-18 -10 -33 -17.5 -45 -22.5s-26.667 -10.167 -44 -15.5c-23.333 -6 -42.833 -10.333 -58.5 -13s-34.834 -4 -57.501 -4l-15 1l-35 -86h27h22c6.66699 0 13 -0.666992 19 -2c32 -6 56.333 -16 73 -30c20.667 -18 31 -43 31 -75
c0.666992 -5.33301 1 -8.66602 1 -9.99902c0 -44 -19.167 -80.167 -57.5 -108.5s-84.5 -42.5 -138.5 -42.5c-24 0 -44 1 -60 3s-34.667 6.33301 -56 13l-40 11l30 66l25 -8c8.66699 -2.66699 22 -5.5 40 -8.5s33.333 -4.5 46 -4.5c4.66699 0.666992 8 1 10 1
c58 7.33301 84.333 30.666 79 69.999c-2.66699 16 -10.167 29 -22.5 39s-27.5 15 -45.5 15c-4.66699 0 -9.83398 0.166992 -15.501 0.5s-11.834 0.5 -18.501 0.5c-7.33301 0 -13.5 -0.5 -18.5 -1.5s-10.833 -3.16699 -17.5 -6.5l-17 13l64 154l-21 4
c-80 12 -152.333 52.333 -217 121c-77.333 82.667 -116 183.334 -116 302.001c0 126 39.333 231.333 118 316c81.333 87.333 184.333 131 309 131c45.333 0 83.166 -2.5 113.499 -7.5s60.5 -15.167 90.5 -30.5l48 -25l-54 -85l-42 20
c-16.667 7.33301 -34.667 13.166 -54 17.499s-41.666 6.5 -66.999 6.5c-14 0 -29.667 -1 -47 -3c-82.667 -9.33301 -146.334 -47.666 -191.001 -114.999c-42 -63.333 -63 -144.666 -63 -243.999c0 -81.333 24.333 -152.333 73 -213c51.333 -64 115 -96 191 -96
c46 0 82.333 2.66699 109 8c35.333 7.33301 67.333 20.333 96 39l32 22z" />
    <glyph glyph-name="egrave" unicode="&#xe8;" horiz-adv-x="892" 
d="M818 413l-565 0.000976562c0 -4.66699 -0.166992 -9.83398 -0.5 -15.501s-0.5 -9.5 -0.5 -11.5c0 -80 27.667 -150 83 -210s120.333 -90 195 -90c38 0 71 3.5 99 10.5s58.333 20.167 91 39.5l43 26l48 -78l-72 -43c-66.667 -40.667 -147.334 -61 -242.001 -61
c-117.333 0 -213.666 38.667 -288.999 116c-79.333 82 -119 192 -119 330c0 125.333 33.333 228 100 308c70.667 85.333 165.667 128 285 128c110 0 196 -37 258 -111c53.333 -64 80 -141.667 80 -233zM675 508.001l-8 73c-5.33301 52 -25.666 94.667 -60.999 128
s-80 50 -134 50c-52 0 -97.333 -17.833 -136 -53.5s-63.334 -80.5 -74.001 -134.5l-11 -63h424zM694 966.001h-103l-318 234l110 85z" />
    <glyph glyph-name="eacute" unicode="&#xe9;" horiz-adv-x="898" 
d="M818 413l-565 0.000976562c0 -4.66699 -0.166992 -9.83398 -0.5 -15.501s-0.5 -9.5 -0.5 -11.5c0 -80 27.667 -150 83 -210s120.333 -90 195 -90c38 0 71 3.5 99 10.5s58.333 20.167 91 39.5l43 26l48 -78l-72 -43c-66.667 -40.667 -147.334 -61 -242.001 -61
c-117.333 0 -213.666 38.667 -288.999 116c-79.333 82 -119 192 -119 330c0 125.333 33.333 228 100 308c70.667 85.333 165.667 128 285 128c110 0 196 -37 258 -111c53.333 -64 80 -141.667 80 -233zM675 508.001l-8 73c-5.33301 52 -25.666 94.667 -60.999 128
s-80 50 -134 50c-52 0 -97.333 -17.833 -136 -53.5s-63.334 -80.5 -74.001 -134.5l-11 -63h424zM719 1186l-303 -222h-98l300 313z" />
    <glyph glyph-name="ecircumflex" unicode="&#xea;" horiz-adv-x="892" 
d="M818 413l-565 0.000976562c0 -4.66699 -0.166992 -9.83398 -0.5 -15.501s-0.5 -9.5 -0.5 -11.5c0 -80 27.667 -150 83 -210s120.333 -90 195 -90c38 0 71 3.5 99 10.5s58.333 20.167 91 39.5l43 26l48 -78l-72 -43c-66.667 -40.667 -147.334 -61 -242.001 -61
c-117.333 0 -213.666 38.667 -288.999 116c-79.333 82 -119 192 -119 330c0 125.333 33.333 228 100 308c70.667 85.333 165.667 128 285 128c110 0 196 -37 258 -111c53.333 -64 80 -141.667 80 -233zM675 508.001l-8 73c-5.33301 52 -25.666 94.667 -60.999 128
s-80 50 -134 50c-52 0 -97.333 -17.833 -136 -53.5s-63.334 -80.5 -74.001 -134.5l-11 -63h424zM781 965.001h-98l-190 186l-191 -183h-99l234 296h113z" />
    <glyph glyph-name="edieresis" unicode="&#xeb;" horiz-adv-x="892" 
d="M818 413l-565 0.000976562c0 -4.66699 -0.166992 -9.83398 -0.5 -15.501s-0.5 -9.5 -0.5 -11.5c0 -80 27.667 -150 83 -210s120.333 -90 195 -90c38 0 71 3.5 99 10.5s58.333 20.167 91 39.5l43 26l48 -78l-72 -43c-66.667 -40.667 -147.334 -61 -242.001 -61
c-117.333 0 -213.666 38.667 -288.999 116c-79.333 82 -119 192 -119 330c0 125.333 33.333 228 100 308c70.667 85.333 165.667 128 285 128c110 0 196 -37 258 -111c53.333 -64 80 -141.667 80 -233zM675 508.001l-8 73c-5.33301 52 -25.666 94.667 -60.999 128
s-80 50 -134 50c-52 0 -97.333 -17.833 -136 -53.5s-63.334 -80.5 -74.001 -134.5l-11 -63h424zM753 1065c2.66699 -26.667 -5.5 -49.667 -24.5 -69s-42.167 -29 -69.5 -29c-24 0 -44.667 9 -62 27s-26 39.667 -26 65c0 23.333 8 43.333 24 60s35.667 26 59 28
c26 0 49 -7.66699 69 -23s30 -35 30 -59zM406 1062c2.66699 -26.667 -5.66699 -49.6689 -25 -69.002s-42.333 -29 -69 -29c-24 0 -44.667 9 -62 27s-26 39.667 -26 65c0 22.667 8 42.334 24 59.001s35.667 26 59 28c26 0 49 -7.66699 69 -23s30 -34.666 30 -57.999z" />
    <glyph glyph-name="igrave" unicode="&#xec;" horiz-adv-x="438" 
d="M305 0h-165v841h164zM417 965h-103l-318 234l110 85z" />
    <glyph glyph-name="iacute" unicode="&#xed;" horiz-adv-x="439" 
d="M313 0h-165v841h164zM415 1186l-303 -222h-98l300 313z" />
    <glyph glyph-name="icircumflex" unicode="&#xee;" horiz-adv-x="436" 
d="M320 0h-165v841h164zM513 965h-98l-190 186l-191 -183h-99l234 296h113z" />
    <glyph glyph-name="idieresis" unicode="&#xef;" horiz-adv-x="436" 
d="M317 0h-165v841h164zM489 1065c2.66699 -26.667 -5.5 -49.667 -24.5 -69s-42.167 -29 -69.5 -29c-24 0 -44.667 9 -62 27s-26 39.667 -26 65c0 23.333 8 43.333 24 60s35.667 26 59 28c26 0 49 -7.66699 69 -23s30 -35 30 -59zM142 1062
c2.66699 -26.667 -5.66699 -49.6689 -25 -69.002s-42.333 -29 -69 -29c-24 0 -44.667 9 -62 27s-26 39.667 -26 65c0 22.667 8 42.334 24 59.001s35.667 26 59 28c26 0 49 -7.66699 69 -23s30 -34.666 30 -57.999z" />
    <glyph glyph-name="ntilde" unicode="&#xf1;" horiz-adv-x="914" 
d="M844 -1h-154.002v535c0 67.333 -17 119.666 -51 156.999c-37.333 40.667 -93.333 61 -168 61c-61.333 0 -111.666 -21.667 -150.999 -65s-59 -95.666 -59 -156.999v-531l-159 1v841h153v-106l40 37c17.333 16 38.333 30.667 63 44c28.667 15.333 58.334 27.333 89.001 36
s65.667 13 105 13c42 0 81.667 -6 119 -18s68.333 -30.667 93 -56c28 -28.667 48.333 -66 61 -112s19 -97.333 19 -154v-526zM809.998 1162l-3.99805 -19.999c-11.333 -52 -34.333 -93.333 -69 -124c-38 -33.333 -86 -50 -144 -50c-35.333 0 -79 11.833 -131 35.5
s-91 35.5 -117 35.5c-8.66699 0 -20.167 -0.833008 -34.5 -2.5s-27.5 -8.83398 -39.5 -21.501l-31 -45h-77c18 52 33.667 87.667 47 107c35.333 50.667 84.666 76 147.999 76c40.667 0 87.667 -12.833 141 -38.5s97.666 -38.5 132.999 -38.5c22 0 43 9 63 27
c15.333 14 26 28.333 32 43l6 16h77z" />
    <glyph glyph-name="ograve" unicode="&#xf2;" horiz-adv-x="1011" 
d="M924 417c0 -124.667 -40.001 -228.667 -120.001 -312s-178 -125 -294 -125c-128 0 -231.667 44.667 -311 134c-74 83.333 -111 184.333 -111 303c0 127.333 38 233 114 317c78.667 87.333 181.334 131 308.001 131c122 0 222.333 -44.667 301 -134
c75.333 -85.333 113 -190 113 -314zM759.999 417c0 107.333 -22.501 191.166 -67.501 251.499s-105.833 90.5 -182.5 90.5c-79.333 0 -142.166 -30.167 -188.499 -90.5s-69.5 -144.166 -69.5 -251.499c0 -87.333 20.667 -162 62 -224c48 -72 113.333 -108 196 -108
c82 0 145 32 189 96c40.667 59.333 61 138 61 236zM734.998 966h-103l-318 234l110 85z" />
    <glyph glyph-name="oacute" unicode="&#xf3;" horiz-adv-x="1006" 
d="M924 417c0 -124.667 -40.001 -228.667 -120.001 -312s-178 -125 -294 -125c-128 0 -231.667 44.667 -311 134c-74 83.333 -111 184.333 -111 303c0 127.333 38 233 114 317c78.667 87.333 181.334 131 308.001 131c122 0 222.333 -44.667 301 -134
c75.333 -85.333 113 -190 113 -314zM759.999 417c0 107.333 -22.501 191.166 -67.501 251.499s-105.833 90.5 -182.5 90.5c-79.333 0 -142.166 -30.167 -188.499 -90.5s-69.5 -144.166 -69.5 -251.499c0 -87.333 20.667 -162 62 -224c48 -72 113.333 -108 196 -108
c82 0 145 32 189 96c40.667 59.333 61 138 61 236zM746.998 1186l-303 -222h-98l300 313z" />
    <glyph glyph-name="ocircumflex" unicode="&#xf4;" horiz-adv-x="1001" 
d="M924 417c0 -124.667 -40.001 -228.667 -120.001 -312s-178 -125 -294 -125c-128 0 -231.667 44.667 -311 134c-74 83.333 -111 184.333 -111 303c0 127.333 38 233 114 317c78.667 87.333 181.334 131 308.001 131c122 0 222.333 -44.667 301 -134
c75.333 -85.333 113 -190 113 -314zM759.999 417c0 107.333 -22.501 191.166 -67.501 251.499s-105.833 90.5 -182.5 90.5c-79.333 0 -142.166 -30.167 -188.499 -90.5s-69.5 -144.166 -69.5 -251.499c0 -87.333 20.667 -162 62 -224c48 -72 113.333 -108 196 -108
c82 0 145 32 189 96c40.667 59.333 61 138 61 236zM805.998 965h-98l-190 186l-191 -183h-99l234 296h113z" />
    <glyph glyph-name="otilde" unicode="&#xf5;" horiz-adv-x="1006" 
d="M924 417c0 -124.667 -40.001 -228.667 -120.001 -312s-178 -125 -294 -125c-128 0 -231.667 44.667 -311 134c-74 83.333 -111 184.333 -111 303c0 127.333 38 233 114 317c78.667 87.333 181.334 131 308.001 131c122 0 222.333 -44.667 301 -134
c75.333 -85.333 113 -190 113 -314zM759.999 417c0 107.333 -22.501 191.166 -67.501 251.499s-105.833 90.5 -182.5 90.5c-79.333 0 -142.166 -30.167 -188.499 -90.5s-69.5 -144.166 -69.5 -251.499c0 -87.333 20.667 -162 62 -224c48 -72 113.333 -108 196 -108
c82 0 145 32 189 96c40.667 59.333 61 138 61 236zM837.998 1161l-3.99805 -19.999c-11.333 -52 -34.333 -93.333 -69 -124c-38 -33.333 -86 -50 -144 -50c-35.333 0 -79 11.833 -131 35.5s-91 35.5 -117 35.5c-8.66699 0 -20.167 -0.833008 -34.5 -2.5
s-27.5 -8.83398 -39.5 -21.501l-31 -45h-77c18 52 33.667 87.667 47 107c35.333 50.667 84.666 76 147.999 76c40.667 0 87.667 -12.833 141 -38.5s97.666 -38.5 132.999 -38.5c22 0 43 9 63 27c15.333 14 26 28.333 32 43l6 16h77z" />
    <glyph glyph-name="odieresis" unicode="&#xf6;" horiz-adv-x="1006" 
d="M924 417c0 -124.667 -40.001 -228.667 -120.001 -312s-178 -125 -294 -125c-128 0 -231.667 44.667 -311 134c-74 83.333 -111 184.333 -111 303c0 127.333 38 233 114 317c78.667 87.333 181.334 131 308.001 131c122 0 222.333 -44.667 301 -134
c75.333 -85.333 113 -190 113 -314zM759.999 417c0 107.333 -22.501 191.166 -67.501 251.499s-105.833 90.5 -182.5 90.5c-79.333 0 -142.166 -30.167 -188.499 -90.5s-69.5 -144.166 -69.5 -251.499c0 -87.333 20.667 -162 62 -224c48 -72 113.333 -108 196 -108
c82 0 145 32 189 96c40.667 59.333 61 138 61 236zM771.998 1064c2.66699 -26.667 -5.5 -49.667 -24.5 -69s-42.167 -29 -69.5 -29c-24 0 -44.667 9 -62 27s-26 39.667 -26 65c0 23.333 8 43.333 24 60s35.667 26 59 28c26 0 49 -7.66699 69 -23s30 -35 30 -59z
M424.998 1061c2.66699 -26.667 -5.66699 -49.6689 -25 -69.002s-42.333 -29 -69 -29c-24 0 -44.667 9 -62 27s-26 39.667 -26 65c0 22.667 8 42.334 24 59.001s35.667 26 59 28c26 0 49 -7.66699 69 -23s30 -34.666 30 -57.999z" />
    <glyph glyph-name="divide" unicode="&#xf7;" horiz-adv-x="1031" 
d="M618 763c0 -28 -10.3311 -52 -30.998 -72s-45.334 -30 -74.001 -30c-26 0 -48.167 9.83301 -66.5 29.5s-27.5 43.167 -27.5 70.5c0 26.667 9.5 49.5 28.5 68.5s41.833 28.5 68.5 28.5c27.333 0 51.166 -9.16699 71.499 -27.5s30.5 -40.833 30.5 -67.5zM947.002 411h-861
v117h861v-117zM617.002 181c0 -28 -10.333 -52 -31 -72s-45 -30 -73 -30c-26 0 -48.167 9.83301 -66.5 29.5s-27.5 43.167 -27.5 70.5c0 26 9.33301 48.667 28 68s41.334 29 68.001 29c27.333 0 51.166 -9.16699 71.499 -27.5s30.5 -40.833 30.5 -67.5z" />
    <glyph glyph-name="oslash" unicode="&#xf8;" horiz-adv-x="1004" 
d="M1014 787l-151 -129c40.667 -74 61 -154.333 61 -241c0 -124.667 -40 -228.667 -120 -312s-178 -125 -294 -125c-62.667 0 -118.834 10.5 -168.501 31.5s-93.167 50.833 -130.5 89.5l-133 -113l-65 79l136 116c-40.667 71.333 -61 149.333 -61 234
c0 127.333 38 233 114 317c78.667 87.333 181.334 131 308.001 131c59.333 0 113.5 -10.833 162.5 -32.5s92.167 -52.5 129.5 -92.5l149 128zM702 655c-45.333 69.333 -109.334 103.999 -192.001 103.999c-79.333 0 -142.166 -30.167 -188.499 -90.5
s-69.5 -144.166 -69.5 -251.499c0 -46 6.33301 -89.333 19 -130zM759.999 416.999c0 48.667 -5.33398 95 -16.001 139l-428 -365c22.667 -34 49.834 -60.167 81.501 -78.5s69.167 -27.5 112.5 -27.5c82 0 145 32 189 96c40.667 59.333 61 138 61 236z" />
    <glyph glyph-name="ugrave" unicode="&#xf9;" horiz-adv-x="914" 
d="M829 0l-151 -0.000976562v106l-40 -37c-17.333 -14.667 -39.5 -29.5 -66.5 -44.5s-55.667 -26.833 -86 -35.5s-65.166 -13 -104.499 -13c-42.667 0 -82.667 6 -120 18s-68.333 31 -93 57c-27.333 28.667 -47.333 66 -60 112s-19 97 -19 153v525h154v-534
c0 -67.333 17 -119.666 51 -156.999c36.667 -40.667 92.667 -61 168 -61c61.333 0 111.666 21.833 150.999 65.5s59 96.167 59 157.5v529h157v-841zM703 965.999h-103l-318 234l110 85z" />
    <glyph glyph-name="uacute" unicode="&#xfa;" horiz-adv-x="915" 
d="M829 0l-151 -0.000976562v106l-40 -37c-17.333 -14.667 -39.5 -29.5 -66.5 -44.5s-55.667 -26.833 -86 -35.5s-65.166 -13 -104.499 -13c-42.667 0 -82.667 6 -120 18s-68.333 31 -93 57c-27.333 28.667 -47.333 66 -60 112s-19 97 -19 153v525h154v-534
c0 -67.333 17 -119.666 51 -156.999c36.667 -40.667 92.667 -61 168 -61c61.333 0 111.666 21.833 150.999 65.5s59 96.167 59 157.5v529h157v-841zM674 1191l-303 -222h-98l300 313z" />
    <glyph glyph-name="ucircumflex" unicode="&#xfb;" horiz-adv-x="914" 
d="M829 0l-151 -0.000976562v106l-40 -37c-17.333 -14.667 -39.5 -29.5 -66.5 -44.5s-55.667 -26.833 -86 -35.5s-65.166 -13 -104.499 -13c-42.667 0 -82.667 6 -120 18s-68.333 31 -93 57c-27.333 28.667 -47.333 66 -60 112s-19 97 -19 153v525h154v-534
c0 -67.333 17 -119.666 51 -156.999c36.667 -40.667 92.667 -61 168 -61c61.333 0 111.666 21.833 150.999 65.5s59 96.167 59 157.5v529h157v-841zM797 964.999h-98l-190 186l-191 -183h-99l234 296h113z" />
    <glyph glyph-name="udieresis" unicode="&#xfc;" horiz-adv-x="914" 
d="M829 0l-151 -0.000976562v106l-40 -37c-17.333 -14.667 -39.5 -29.5 -66.5 -44.5s-55.667 -26.833 -86 -35.5s-65.166 -13 -104.499 -13c-42.667 0 -82.667 6 -120 18s-68.333 31 -93 57c-27.333 28.667 -47.333 66 -60 112s-19 97 -19 153v525h154v-534
c0 -67.333 17 -119.666 51 -156.999c36.667 -40.667 92.667 -61 168 -61c61.333 0 111.666 21.833 150.999 65.5s59 96.167 59 157.5v529h157v-841zM731 1065c2.66699 -26.667 -5.5 -49.667 -24.5 -69s-42.167 -29 -69.5 -29c-24 0 -44.667 9 -62 27s-26 39.667 -26 65
c0 23.333 8 43.333 24 60s35.667 26 59 28c26 0 49 -7.66699 69 -23s30 -35 30 -59zM384 1062c2.66699 -26.667 -5.66699 -49.6689 -25 -69.002s-42.333 -29 -69 -29c-24 0 -44.667 9 -62 27s-26 39.667 -26 65c0 22.667 8 42.334 24 59.001s35.667 26 59 28
c26 0 49 -7.66699 69 -23s30 -34.666 30 -57.999z" />
    <glyph glyph-name="ydieresis" unicode="&#xff;" horiz-adv-x="919" 
d="M875 837l-437.001 -1007c-26.667 -62.667 -56.667 -112 -90 -148c-39.333 -42.667 -87.333 -71.667 -144 -87c-17.333 -4.66699 -37.333 -8.16699 -60 -10.5s-44 -3.5 -64 -3.5c-15.333 0 -27 0.666992 -35 2v111c4 -1.33301 9.16699 -2.33301 15.5 -3s12.833 -1 19.5 -1
c20.667 0 41.834 2 63.501 6s41.167 9 58.5 15s36.5 20 57.5 42s35.5 41.667 43.5 59l110 240l-350 767l147 44l268 -651l272 658zM782.999 1065c2.66699 -26.667 -5.5 -49.667 -24.5 -69s-42.167 -29 -69.5 -29c-24 0 -44.667 9 -62 27s-26 39.667 -26 65
c0 23.333 8 43.333 24 60s35.667 26 59 28c26 0 49 -7.66699 69 -23s30 -35 30 -59zM435.999 1062c2.66699 -26.667 -5.66699 -49.6689 -25 -69.002s-42.333 -29 -69 -29c-24 0 -44.667 9 -62 27s-26 39.667 -26 65c0 22.667 8 42.334 24 59.001s35.667 26 59 28
c26 0 49 -7.66699 69 -23s30 -34.666 30 -57.999z" />
    <glyph glyph-name="OE" unicode="&#x152;" horiz-adv-x="1732" 
d="M1626 0l-661.998 -0.00195312v54c-29.333 -17.333 -72.833 -33.666 -130.5 -48.999s-109.834 -23 -156.501 -23c-174 0 -317.333 62 -430 186c-108 118.667 -162 261.667 -162 429c0 166.667 56.667 309.334 170 428.001s252.666 178 417.999 178
c70 0 133 -8.33301 189 -25c26.667 -8 61 -22 103 -42v48h586v-117h-422v-386h414v-118h-414v-444h497v-119zM965.002 225.998l-0.000976562 736c-19.333 28 -49.666 53 -90.999 75c-58.667 31.333 -125.667 47 -201 47c-132 0 -234.667 -50 -308 -150
c-65.333 -89.333 -98 -201.666 -98 -336.999c0 -136.667 37.333 -252.334 112 -347.001c78 -99.333 177.333 -149 298 -149c70 0 136 17.667 198 53c42 24 72 48 90 72z" />
    <glyph glyph-name="oe" unicode="&#x153;" horiz-adv-x="1552" 
d="M1486 413l-565 0.000976562c0 -4.66699 -0.166992 -9.83398 -0.5 -15.501s-0.5 -9.5 -0.5 -11.5c0 -80.667 27.5 -150.834 82.5 -210.501s120.167 -89.5 195.5 -89.5c38 0 71 3.5 99 10.5s58.333 20.167 91 39.5l43 26l48 -78l-72 -43
c-33.333 -20 -69 -35.167 -107 -45.5s-80 -15.5 -126 -15.5c-68 0 -132 15.333 -192 46s-108 71.334 -144 122.001c-40 -56 -87.5 -98 -142.5 -126s-116.833 -42 -185.5 -42c-127.333 0 -231 45 -311 135c-74 83.333 -111 184 -111 302c0 130 38.5 237.167 115.5 321.5
s179.5 126.5 307.5 126.5c66 0 124.333 -11.667 175 -35c56.667 -26 106 -67.333 148 -124c30 43.333 69.667 79.333 119 108c58.667 34 121 51 187 51c104 0 188 -36.333 252 -109c58.667 -66.667 88 -146 88 -238zM1343 508.001l-8 73
c-5.33301 52 -25.666 94.667 -60.999 128s-80 50 -134 50c-52 0 -97.333 -17.833 -136 -53.5s-63.334 -80.5 -74.001 -134.5l-11 -63h424zM760 434.001c0 99.333 -22.333 178.334 -67 237.001s-105.667 88 -183 88c-80 0 -143 -30.333 -189 -91s-69 -144.334 -69 -251.001
c0 -92.667 22.333 -170 67 -232c48 -66.667 111.667 -100 191 -100c84.667 0 148.667 35 192 105c38.667 62 58 143.333 58 244z" />
    <glyph glyph-name="Ydieresis" unicode="&#x178;" horiz-adv-x="1000" 
d="M971 1179l-400 -667v-512h-166v512l-359 647l169 38l290 -588l322 590zM764 1373c2.66699 -26.667 -5.5 -49.667 -24.5 -69s-42.167 -29 -69.5 -29c-24 0 -44.667 9 -62 27s-26 39.667 -26 65c0 23.333 8 43.333 24 60s35.667 26 59 28c26 0 49 -7.66699 69 -23
s30 -35 30 -59zM417 1370c2.66699 -26.667 -5.66699 -49.6689 -25 -69.002s-42.333 -29 -69 -29c-24 0 -44.667 9 -62 27s-26 39.667 -26 65c0 22.667 8 42.334 24 59.001s35.667 26 59 28c26 0 49 -7.66699 69 -23s30 -34.666 30 -57.999z" />
    <glyph glyph-name="florin" unicode="&#x192;" horiz-adv-x="760" 
d="M683 1241c-6.66699 -18.667 -17.1689 -33.166 -31.502 -43.499s-31.5 -15.5 -51.5 -15.5c-10 0 -19.333 4 -28 12c-13.333 12.667 -22.166 20 -26.499 22s-8.83301 3 -13.5 3c-24 0 -42.333 -59.667 -55 -179c-8.66699 -78.667 -16.667 -132.667 -24 -162l-8 -33h160
l-9 -67h-169l-97 -485c-14.667 -72.667 -31 -137.334 -49 -194.001c-28 -88.667 -58.333 -158 -91 -208c-42.667 -64.667 -89 -97 -139 -97c-14 0 -26.667 1.66699 -38 5s-21.833 10.833 -31.5 22.5s-14.5 24.167 -14.5 37.5c0 4.66699 1 9.66699 3 15
c6 18.667 15.5 33.334 28.5 44.001s28.833 16 47.5 16c13.333 0 25.333 -9.33301 36 -28c5.33301 -9.33301 12 -15.333 20 -18c22.667 -7.33301 42.667 12.667 60 60c6 16 25.667 106.333 59 271l112 561h-176l3 67h197l10 43c14.667 73.333 31.667 137.666 51 192.999
c24.667 72 51 126.667 79 164c34.667 46 72.334 69 113.001 69c18.667 0 36 -6.16699 52 -18.5s24 -26.5 24 -42.5c0 -4 -1 -8.66699 -3 -14z" />
    <glyph glyph-name="summation" unicode="&#x3a3;" horiz-adv-x="1265" 
d="M1185 222c-12 -34.667 -21.3311 -65.333 -27.998 -92s-13.334 -59.167 -20.001 -97.5s-11.334 -68.666 -14.001 -90.999s-4 -48.166 -4 -77.499l-115 22h-929l576 633l-566 706l105 -10h879l3 -260h-34c0 31.333 -4.5 57.666 -13.5 78.999s-24.333 42 -46 62
s-44 32.5 -67 37.5s-53.833 7.5 -92.5 7.5h-475l457 -551l-489 -549h652c36.667 0 72.667 13.333 108 40c26 19.333 45.333 40.166 58 62.499s19 48.5 19 78.5h36z" />
    <glyph glyph-name="Omega" unicode="&#x3a9;" horiz-adv-x="1307" 
d="M1228 -3l-476.003 0.00195312l23 236c76 34.667 133 85.334 171 152.001c36 63.333 54 139.666 54 228.999c0 110.667 -20.667 193.667 -62 249c-53.333 70.667 -145 106 -275 106c-121.333 0 -211.333 -35 -270 -105c-50.667 -60.667 -76 -144 -76 -250
c0 -88.667 18.5 -165.834 55.5 -231.501s93.5 -115.5 169.5 -149.5l24 -236h-477v249h31c0 -11.333 1 -21.333 3 -30s6 -17.667 12 -27c10 -14.667 21.833 -25.167 35.5 -31.5s30.167 -9.5 49.5 -9.5h261v49c-103.333 18 -187.166 65.833 -251.499 143.5
s-96.5 169.834 -96.5 276.501c0 125.333 50 224 150 296c96 69.333 221.667 104 377 104c162.667 0 290.834 -35 384.501 -105s140.5 -168.333 140.5 -295c0 -106.667 -32.167 -198.834 -96.5 -276.501s-148.166 -125.5 -251.499 -143.5v-49h261c18.667 0 35 3.16699 49 9.5
s25.667 16.833 35 31.5c6.66699 9.33301 11 18.166 13 26.499s3 18.5 3 30.5h30v-249z" />
    <glyph glyph-name="pi" unicode="&#x3c0;" horiz-adv-x="1066" 
d="M979 274l-5.00195 -37.9971c-8 -66 -31.333 -121 -70 -165c-42 -47.333 -93 -71 -153 -71c-54 0 -93.667 27.333 -119 82c-20.667 44 -31 102.667 -31 176v33.5c0 9 1.33301 23.5 4 43.5l40 372h-203l-70 -550c-5.33301 -42 -17.333 -79 -36 -111
c-22 -37.333 -48.333 -56 -79 -56c-6.66699 0 -14 1 -22 3c-19.333 5.33301 -35.166 12.666 -47.499 21.999s-20.166 21.5 -23.499 36.5s-5 24.833 -5 29.5c0 21.333 8.66699 41.666 26 60.999c50.667 57.333 77.667 90 81 98c8.66699 19.333 14.667 33.333 18 42
c6.66699 15.333 10.667 30 12 44l40 374h-56c-14 0 -27.667 -0.166992 -41 -0.5s-26.666 -3.16602 -39.999 -8.49902c-20.667 -8 -40.334 -23.333 -59.001 -46c-14.667 -18 -24.334 -33.333 -29.001 -46l-29 11l11 25c30.667 67.333 47.667 103.666 51 108.999
c20.667 34 48.834 60 84.501 78s73.167 27 112.5 27h627v-142h-228l-23 -415c0 -38 10.333 -71.833 31 -101.5s48 -44.5 82 -44.5c27.333 0 50.5 9.16699 69.5 27.5s31.833 42.166 38.5 71.499l7 29h34z" />
    <glyph glyph-name="endash" unicode="&#x2013;" horiz-adv-x="1123" 
d="M1039 484h-952v125h952v-125z" />
    <glyph glyph-name="emdash" unicode="&#x2014;" horiz-adv-x="1429" 
d="M1347 484h-1263v125h1263v-125z" />
    <glyph glyph-name="quoteleft" unicode="&#x2018;" horiz-adv-x="500" 
d="M419 1150l-139.999 -359.001c-14.667 -39.333 -29.334 -67.666 -44.001 -84.999c-18 -21.333 -38.667 -32 -62 -32c-8 0 -17.667 1.66699 -29 5c-18 6 -31.167 14.667 -39.5 26s-12.5 25 -12.5 41c0 15.333 3.33301 32 10 50s16 37.333 28 58l198 333z" />
    <glyph glyph-name="quoteright" unicode="&#x2019;" horiz-adv-x="510" 
d="M376 1005l-198 -333.999l-91 37l139 359c15.333 39.333 30.333 67.666 45 84.999c18 21.333 38.667 32 62 32c8 0 17.667 -1.66699 29 -5c18 -6 31.167 -14.833 39.5 -26.5s12.5 -25.5 12.5 -41.5c0 -14.667 -3.33301 -31 -10 -49s-16 -37 -28 -57z" />
    <glyph glyph-name="quotesinglbase" unicode="&#x201a;" horiz-adv-x="510" 
d="M376 18l-198 -333.999l-91 37l139 359c15.333 39.333 30.333 67.666 45 84.999c18 21.333 38.667 32 62 32c8 0 17.667 -1.66699 29 -5c18 -6 31.167 -14.833 39.5 -26.5s12.5 -25.5 12.5 -41.5c0 -14.667 -3.33301 -31 -10 -49s-16 -37 -28 -57z" />
    <glyph glyph-name="quotedblleft" unicode="&#x201c;" horiz-adv-x="733" 
d="M656 1150l-139 -359.001c-15.333 -39.333 -30.333 -67.666 -45 -84.999c-18 -21.333 -38.667 -32 -62 -32c-8 0 -17.667 1.66699 -29 5c-18 6 -31.167 14.833 -39.5 26.5s-12.5 25.5 -12.5 41.5c0 14.667 3.33301 31 10 49s16 37.333 28 58l198 333zM413 1150
l-139 -359.001c-15.333 -39.333 -30.333 -67.666 -45 -84.999c-18 -21.333 -38.667 -32 -62 -32c-8 0 -17.667 1.66699 -29 5c-18 6 -31.167 14.833 -39.5 26.5s-12.5 25.5 -12.5 41.5c0 14.667 3.33301 31 10 49s16 37.333 28 58l198 333z" />
    <glyph glyph-name="quotedblright" unicode="&#x201d;" horiz-adv-x="728" 
d="M613 1009l-198.001 -333.999l-91 37l140 359c14.667 39.333 29.334 67.666 44.001 84.999c18 21.333 38.667 32 62 32c8 0 17.667 -1.66699 29 -5c19.333 -6 33 -14.833 41 -26.5s12 -25.5 12 -41.5c0 -15.333 -3.5 -31.833 -10.5 -49.5s-16.5 -36.5 -28.5 -56.5z
M369.999 1009l-198.001 -333.999l-91 37l140 359c14.667 39.333 29.334 67.666 44.001 84.999c18 21.333 38.667 32 62 32c8 0 17.667 -1.66699 29 -5c19.333 -6 33 -14.833 41 -26.5s12 -25.5 12 -41.5c0 -15.333 -3.5 -31.833 -10.5 -49.5s-16.5 -36.5 -28.5 -56.5z" />
    <glyph glyph-name="quotedblbase" unicode="&#x201e;" horiz-adv-x="728" 
d="M613 22l-198.001 -333.999l-91 37l140 359c14.667 39.333 29.334 67.666 44.001 84.999c18 21.333 38.667 32 62 32c8 0 17.667 -1.66699 29 -5c19.333 -6 33 -14.833 41 -26.5s12 -25.5 12 -41.5c0 -15.333 -3.5 -31.833 -10.5 -49.5s-16.5 -36.5 -28.5 -56.5z
M369.999 22.001l-198.001 -333.999l-91 37l140 359c14.667 39.333 29.334 67.666 44.001 84.999c18 21.333 38.667 32 62 32c8 0 17.667 -1.66699 29 -5c19.333 -6 33 -14.833 41 -26.5s12 -25.5 12 -41.5c0 -15.333 -3.5 -31.833 -10.5 -49.5s-16.5 -36.5 -28.5 -56.5z" />
    <glyph glyph-name="dagger" unicode="&#x2020;" horiz-adv-x="880" 
d="M804 687h-135l-201 55l65 -307l-61 -740h-58l-62 737l67 310l-203 -55h-135v160h140l199 -56l-64 221v171h173v-178l-62 -214l199 57h138v-161z" />
    <glyph glyph-name="bullet" unicode="&#x2022;" horiz-adv-x="775" 
d="M703 556c0 -86 -30.668 -160.001 -92.001 -222.001s-135.333 -93 -222 -93c-85.333 0 -158.166 30.833 -218.499 92.5s-90.5 135.834 -90.5 222.501c0 84 30 156.333 90 217s132.333 91 217 91c86 0 160.167 -30.167 222.5 -90.5s93.5 -132.833 93.5 -217.5z" />
    <glyph glyph-name="ellipsis" unicode="&#x2026;" horiz-adv-x="1099" 
d="M1011 94c0 -30 -10.833 -56.167 -32.5 -78.5s-47.5 -33.5 -77.5 -33.5s-55.667 11.333 -77 34s-32 49.334 -32 80.001c0 30 10.667 55.667 32 77s47 32 77 32s55.833 -10.833 77.5 -32.5s32.5 -47.834 32.5 -78.501zM658 94c0 -30 -10.833 -56.167 -32.5 -78.5
s-47.5 -33.5 -77.5 -33.5s-55.667 11.333 -77 34s-32 49.334 -32 80.001c0 30 10.667 55.667 32 77s47 32 77 32s55.833 -10.833 77.5 -32.5s32.5 -47.834 32.5 -78.501zM305 94c0 -30.667 -10.667 -57 -32 -79s-47.333 -33 -78 -33c-30 0 -55.833 11.167 -77.5 33.5
s-32.5 48.833 -32.5 79.5c0 30 10.667 55.667 32 77s47.333 32 78 32c30 0 55.833 -10.833 77.5 -32.5s32.5 -47.5 32.5 -77.5z" />
    <glyph glyph-name="trademark" unicode="&#x2122;" horiz-adv-x="1178" 
d="M1099 602h-57v519l-191 -517h-52l-184 518v-520h-58l-1 582h89l183 -512l188 512h83v-582zM514 1136h-182v-534h-57v534h-180v48h419v-48z" />
    <glyph glyph-name="partialdiff" unicode="&#x2202;" horiz-adv-x="891" 
d="M809 630c0 -162 -33.667 -308.334 -101 -439.001c-76 -147.333 -172.333 -221 -289 -221h-17c-4.66699 0.666992 -8 1 -10 1c-95.333 8.66699 -169.5 42.167 -222.5 100.5s-79.5 130.833 -79.5 217.5c0 95.333 30.833 178.333 92.5 249s138.167 106 229.5 106
c40.667 0 76.667 -6.33301 108 -19c25.333 -10 57.666 -29 96.999 -57l49 -34l13 81c4.66699 30 7 62.667 7 98c0 110 -22.667 203.333 -68 280c-51.333 86.667 -121.666 130 -210.999 130c-26 0 -52.667 -4.33301 -80 -13l-78 -27l-29 -9l-62 75l70 20
c28 8.66699 53.667 14.834 77 18.501s48.333 5.5 75 5.5c129.333 0 235 -59.667 317 -179c74.667 -109.333 112 -237.333 112 -384zM653 473.999l-43.998 41.999c-16.667 16 -32.834 28.333 -48.501 37s-34.834 15.334 -57.501 20.001
c-5.33301 1.33301 -11.5 2.33301 -18.5 3s-13.5 1 -19.5 1c-52 0 -99.333 -23 -142 -69c-38.667 -42 -66.334 -94 -83.001 -156c-9.33301 -35.333 -14 -70.333 -14 -105c0 -54.667 11 -101.667 33 -141c24.667 -44.667 60.667 -74 108 -88c14 -4.66699 28.667 -7 44 -7
c56.667 0 105.334 38 146.001 114c31.333 58 55.333 132.667 72 224z" />
    <glyph glyph-name="Delta" unicode="&#x2206;" horiz-adv-x="1224" 
d="M1147 0h-1058l565 1186zM938 77l-350 828l-388 -828h738z" />
    <glyph glyph-name="product" unicode="&#x220f;" horiz-adv-x="1442" 
d="M1360 -115l-506.005 -0.00292969v30l41 2c29.333 0 49.333 1.83301 60 5.5s21.334 10.834 32.001 21.501s17.5 21.334 20.5 32.001s4.5 24.334 4.5 41.001c0 6 -0.166992 12.167 -0.5 18.5s-0.5 12.833 -0.5 19.5v1069h-592v-1060c0 -30.667 2.5 -55.5 7.5 -74.5
s16.5 -35.167 34.5 -48.5c12.667 -9.33301 25.834 -15.333 39.501 -18s31.834 -4 54.501 -4h32v-34h-506v36h40c26.667 0 45.667 1.66699 57 5s22 9 32 17c16.667 13.333 27.334 31.333 32.001 54c2.66699 12.667 4 35.667 4 69v964c0 46 -17.333 84.333 -52 115
c-14 12 -26.667 21 -38 27s-24.666 9 -39.999 9l-27 2v34h1271v-36l-36 -2c-16 0 -29.167 -2.33301 -39.5 -7s-22.5 -13 -36.5 -25c-21.333 -16.667 -35.333 -36 -42 -58s-10 -49.667 -10 -83v-954c0 -26.667 2 -48 6 -64s13 -30.667 27 -44s27.5 -21.833 40.5 -25.5
s30.5 -5.5 52.5 -5.5l38 -2v-26z" />
    <glyph glyph-name="radical" unicode="&#x221a;" horiz-adv-x="925" 
d="M841 1299l-223 -1375l-367 726l-139 -72l-23 49l215 101l295 -579l192 1157z" />
    <glyph glyph-name="infinity" unicode="&#x221e;" horiz-adv-x="1355" 
d="M1275 420c0 -76.667 -24.999 -139.667 -74.999 -189c-47.333 -46.667 -104 -70 -170 -70c-43.333 0 -89.333 10 -138 30s-93.334 49 -134.001 87l-76 72l-78 -72c-41.333 -38 -86 -67 -134 -87s-93.667 -30 -137 -30c-65.333 0 -122 23.333 -170 70
c-50.667 49.333 -76 112.333 -76 189c0 66.667 24.5 123.167 73.5 169.5s107.833 69.5 176.5 69.5c42.667 0 84.167 -9.33301 124.5 -28s81.5 -46.667 123.5 -84l96 -87l97 87c40 36 81 63.667 123 83s83.667 29 125 29c68 0 126.5 -23.167 175.5 -69.5
s73.5 -102.833 73.5 -169.5zM1189 414c0 44.667 -16.5 81.499 -49.5 110.499s-73.167 43.5 -120.5 43.5c-32 0 -62 -6.66699 -90 -20c-16 -8 -42.333 -25.333 -79 -52l-115 -87l107 -99c26 -24.667 52.5 -42 79.5 -52s58.833 -15 95.5 -15c52 0 93.667 16.333 125 49
s47 73.334 47 122.001zM628.001 408.999l-115.002 87c-36 26.667 -62.333 44 -79 52c-27.333 13.333 -57.666 20 -90.999 20c-46.667 0 -86.5 -14.5 -119.5 -43.5s-49.5 -65.833 -49.5 -110.5c0 -48 15.833 -88.5 47.5 -121.5s72.834 -49.5 123.501 -49.5
c38 0 70.167 4.83301 96.5 14.5s52.833 27.167 79.5 52.5z" />
    <glyph glyph-name="integral" unicode="&#x222b;" horiz-adv-x="553" 
d="M479 1250c-2.66699 -17.333 -10.5 -31.501 -23.5 -42.501s-28.5 -16.5 -46.5 -16.5c-10 0 -20.333 4 -31 12c-15.333 12 -25.5 19 -30.5 21s-8.83301 3 -11.5 3c-9.33301 0 -16 -7.16699 -20 -21.5s-6 -33.833 -6 -58.5c0 -33.333 2 -71.666 6 -114.999
c10.667 -116 16 -184.667 16 -206v-501c0 -76 -2.66699 -141.333 -8 -196c-8.66699 -87.333 -23.667 -156 -45 -206c-27.333 -64.667 -64.666 -97 -111.999 -97h-12c-4 0.666992 -12.833 2.66699 -26.5 6s-26.667 11.833 -39 25.5s-18.5 28.5 -18.5 44.5c0 18 6 33 18 45
s26.333 18 43 18c14 0 28 -8.66699 42 -26c8.66699 -10.667 16.667 -17 24 -19c18 -5.33301 30.333 5 37 31s10 63.667 10 113c0 29.333 -0.333008 53.333 -1 72c-2.66699 74 -4 112.333 -4 115v698c0 67.333 3 123 9 167c8.66699 62.667 23 111.667 43 147
c24 42 56 63 96 63c24.667 0 46.667 -7.33301 66 -22s27.666 -32.667 24.999 -54z" />
    <glyph glyph-name="approxequal" unicode="&#x2248;" horiz-adv-x="1132" 
d="M1045 623l-33.998 -40.001c-32 -36 -64.833 -62.167 -98.5 -78.5s-73.834 -24.5 -120.501 -24.5c-28.667 0 -58.167 4.66699 -88.5 14l-89.5 28l-145 40l-58.5 16.5c-19.667 5.66699 -38.167 8.5 -55.5 8.5c-6 0 -12.667 -0.5 -20 -1.5s-13 -1.83301 -17 -2.5
c-27.333 -5.33301 -50.333 -13.5 -69 -24.5s-38.334 -27.167 -59.001 -48.5l-29 -32l-75 49l24 26c30.667 33.333 61.334 58.333 92.001 75s68 28.334 112 35.001c21.333 3.33301 34.666 5 39.999 5h14c20.667 0 42.667 -2.66699 66 -8c15.333 -3.33301 39.333 -10 72 -20
l127 -38l77.5 -23.5c26.333 -7.66699 52.5 -11.5 78.5 -11.5c61.333 0 113 22 155 66l32 33zM1045 341.999l-33.998 -40.001c-32 -36 -64.833 -62.167 -98.5 -78.5s-73.834 -24.5 -120.501 -24.5c-28.667 0 -58.167 4.66699 -88.5 14l-89.5 28l-145 40l-58.5 16.5
c-19.667 5.66699 -38.167 8.5 -55.5 8.5c-6 0 -12.667 -0.5 -20 -1.5s-13 -1.83301 -17 -2.5c-27.333 -5.33301 -50.333 -13.5 -69 -24.5s-38.334 -27.167 -59.001 -48.5l-29 -32l-75 49l24 26c30.667 33.333 61.334 58.333 92.001 75s68 28.334 112 35.001
c21.333 3.33301 34.666 5 39.999 5h14c20.667 0 42.667 -2.66699 66 -8c15.333 -3.33301 39.333 -10 72 -20l127 -38l77.5 -23.5c26.333 -7.66699 52.5 -11.5 78.5 -11.5c36.667 3.33301 65 9 85 17c24.667 10 48 26.333 70 49l32 33z" />
    <glyph glyph-name="notequal" unicode="&#x2260;" horiz-adv-x="1018" 
d="M940 512h-316l-132 -223h447v-94l-495 -2l-145 -258l-80 48l117 210l-253 1v95h308l121 223h-429l1 95h483l149 266l80 -48l-122 -218h266v-95z" />
    <glyph glyph-name="lessequal" unicode="&#x2264;" horiz-adv-x="962" 
d="M888 211l-805 377v86l804 365v-108l-670 -300l671 -315v-105zM887 3h-802v91h801z" />
    <glyph glyph-name="greaterequal" unicode="&#x2265;" horiz-adv-x="967" 
d="M891 572l-805 -376v104l671 316l-670 300v108l804 -365v-87zM890 -12h-802v91h802v-91z" />
    <glyph glyph-name="lozenge" unicode="&#x25ca;" horiz-adv-x="867" 
d="M798 584l-302 -586h-99l-308 595l308 565h99zM707 584l-262 489l-262 -483l265 -518z" />
    <glyph glyph-name="nonmarkingreturn" 
 />
    </font>
</defs>
</svg>
